999
dxfrw 0.6.3
  0
SECTION
  2
HEADER
  9
$ACADVER
  1
AC1014
  9
$DWGCODEPAGE
  3
ANSI_1252
  9
$INSBASE
 10
0
 20
0
 30
0
  9
$EXTMIN
 10
-103.005945409
 20
-194.370997905
 30
0
  9
$EXTMAX
 10
66.69793306299999
 20
194.075809108
 30
0
  9
$LIMMIN
 10
0
 20
0
  9
$LIMMAX
 10
420
 20
297
  9
$ORTHOMODE
 70
    0
  9
$REGENMODE
 70
    1
  9
$FILLMODE
 70
    1
  9
$QTEXTMODE
 70
    0
  9
$MIRRTEXT
 70
    0
  9
$LTSCALE
 40
1
  9
$ATTMODE
 70
    0
  9
$TEXTSIZE
 40
2.5
  9
$TRACEWID
 40
15.68
  9
$TEXTSTYLE
  7
STANDARD
  9
$CLAYER
  8
0
  9
$CELTYPE
  6
BYLAYER
  9
$CECOLOR
 62
  256
  9
$CELTSCALE
 40
1
  9
$DISPSILH
 70
    0
  9
$DIMSCALE
 40
2.5
  9
$DIMASZ
 40
2.5
  9
$DIMEXO
 40
0.625
  9
$DIMDLI
 40
3.75
  9
$DIMRND
 40
0
  9
$DIMDLE
 40
0
  9
$DIMEXE
 40
1.25
  9
$DIMTP
 40
0
  9
$DIMTM
 40
0
  9
$DIMTXT
 40
2.5
  9
$DIMCEN
 40
2.5
  9
$DIMTSZ
 40
0
  9
$DIMTOL
 70
    0
  9
$DIMLIM
 70
    0
  9
$DIMTIH
 70
    0
  9
$DIMTOH
 70
    0
  9
$DIMSE1
 70
    0
  9
$DIMSE2
 70
    0
  9
$DIMTAD
 70
    1
  9
$DIMZIN
 70
    8
  9
$DIMBLK
  1

  9
$DIMASO
 70
    1
  9
$DIMSHO
 70
    1
  9
$DIMPOST
  1

  9
$DIMAPOST
  1

  9
$DIMALT
 70
    0
  9
$DIMALTD
 70
    3
  9
$DIMALTF
 40
0.03937
  9
$DIMLFAC
 40
1
  9
$DIMTOFL
 70
    1
  9
$DIMTVP
 40
0
  9
$DIMTIX
 70
    0
  9
$DIMSOXD
 70
    0
  9
$DIMSAH
 70
    0
  9
$DIMBLK1
  1

  9
$DIMBLK2
  1

  9
$DIMSTYLE
  2
STANDARD
  9
$DIMCLRD
 70
    0
  9
$DIMCLRE
 70
    0
  9
$DIMCLRT
 70
    0
  9
$DIMTFAC
 40
1
  9
$DIMGAP
 40
0.625
  9
$DIMJUST
 70
    0
  9
$DIMSD1
 70
    0
  9
$DIMSD2
 70
    0
  9
$DIMTOLJ
 70
    0
  9
$DIMTZIN
 70
    8
  9
$DIMALTZ
 70
    0
  9
$DIMALTTZ
 70
    0
  9
$DIMUPT
 70
    0
  9
$DIMDEC
 70
    2
  9
$DIMTDEC
 70
    2
  9
$DIMALTU
 70
    2
  9
$DIMALTTD
 70
    3
  9
$DIMTXSTY
  7
STANDARD
  9
$DIMAUNIT
 70
    0
  9
$DIMADEC
 70
    0
  9
$DIMALTRND
 40
0
  9
$DIMAZIN
 70
    0
  9
$DIMDSEP
 70
   44
  9
$DIMATFIT
 70
    3
  9
$DIMFRAC
 70
    0
  9
$DIMLDRBLK
  1
STANDARD
  9
$DIMUNIT
 70
    2
  9
$DIMLWD
 70
   -2
  9
$DIMLWE
 70
   -2
  9
$DIMTMOVE
 70
    0
  9
$LUNITS
 70
    2
  9
$LUPREC
 70
    4
  9
$SKETCHINC
 40
1
  9
$FILLETRAD
 40
0
  9
$AUNITS
 70
    0
  9
$AUPREC
 70
    2
  9
$MENU
  1
.
  9
$ELEVATION
 40
0
  9
$PELEVATION
 40
0
  9
$THICKNESS
 40
0
  9
$LIMCHECK
 70
    0
  9
$BLIPMODE
 70
    0
  9
$CHAMFERA
 40
0
  9
$CHAMFERB
 40
0
  9
$CHAMFERC
 40
0
  9
$CHAMFERD
 40
0
  9
$SKPOLY
 70
    0
  9
$USRTIMER
 70
    1
  9
$ANGBASE
 50
0
  9
$ANGDIR
 70
    0
  9
$PDMODE
 70
   96
  9
$PDSIZE
 40
-2
  9
$PLINEWID
 40
0
  9
$SPLFRAME
 70
    0
  9
$SPLINETYPE
 70
    2
  9
$SPLINESEGS
 70
    8
  9
$HANDSEED
  5
20000
  9
$SURFTAB1
 70
    6
  9
$SURFTAB2
 70
    6
  9
$SURFTYPE
 70
    6
  9
$SURFU
 70
    6
  9
$SURFV
 70
    6
  9
$UCSBASE
  2

  9
$UCSNAME
  2

  9
$UCSORG
 10
0
 20
0
 30
0
  9
$UCSXDIR
 10
1
 20
0
 30
0
  9
$UCSYDIR
 10
0
 20
1
 30
0
  9
$UCSORTHOREF
  2

  9
$UCSORTHOVIEW
 70
    0
  9
$UCSORGTOP
 10
0
 20
0
 30
0
  9
$UCSORGBOTTOM
 10
0
 20
0
 30
0
  9
$UCSORGLEFT
 10
0
 20
0
 30
0
  9
$UCSORGRIGHT
 10
0
 20
0
 30
0
  9
$UCSORGFRONT
 10
0
 20
0
 30
0
  9
$UCSORGBACK
 10
0
 20
0
 30
0
  9
$PUCSBASE
  2

  9
$PUCSNAME
  2

  9
$PUCSORG
 10
0
 20
0
 30
0
  9
$PUCSXDIR
 10
1
 20
0
 30
0
  9
$PUCSYDIR
 10
0
 20
1
 30
0
  9
$PUCSORTHOREF
  2

  9
$PUCSORTHOVIEW
 70
    0
  9
$PUCSORGTOP
 10
0
 20
0
 30
0
  9
$PUCSORGBOTTOM
 10
0
 20
0
 30
0
  9
$PUCSORGLEFT
 10
0
 20
0
 30
0
  9
$PUCSORGRIGHT
 10
0
 20
0
 30
0
  9
$PUCSORGFRONT
 10
0
 20
0
 30
0
  9
$PUCSORGBACK
 10
0
 20
0
 30
0
  9
$USERI1
 70
    0
  9
$USERI2
 70
    0
  9
$USERI3
 70
    0
  9
$USERI4
 70
    0
  9
$USERI5
 70
    0
  9
$USERR1
 40
0
  9
$USERR2
 40
0
  9
$USERR3
 40
0
  9
$USERR4
 40
0
  9
$USERR5
 40
0
  9
$WORLDVIEW
 70
    1
  9
$SHADEDGE
 70
    3
  9
$SHADEDIF
 70
   70
  9
$TILEMODE
 70
    1
  9
$MAXACTVP
 70
   64
  9
$PINSBASE
 10
0
 20
0
 30
0
  9
$PLIMCHECK
 70
    0
  9
$PEXTMIN
 10
0
 20
0
 30
0
  9
$PEXTMAX
 10
50
 20
50
 30
50
  9
$GRIDMODE
 70
    0
  9
$SNAPSTYLE
 70
    0
  9
$PLIMMIN
 10
0
 20
0
  9
$PLIMMAX
 10
210
 20
297
  9
$UNITMODE
 70
    0
  9
$VISRETAIN
 70
    1
  9
$PLINEGEN
 70
    0
  9
$PSLTSCALE
 70
    1
  9
$TREEDEPTH
 70
 3020
  9
$CMLSTYLE
  2
STANDARD
  9
$CMLJUST
 70
    0
  9
$CMLSCALE
 40
20
  9
$PROXYGRAPHICS
 70
    1
  9
$MEASUREMENT
 70
    1
  9
$CELWEIGHT
370
   -1
  9
$ENDCAPS
280
    0
  9
$JOINSTYLE
280
    0
  9
$LWDISPLAY
290
    0
  9
$HYPERLINKBASE
  1

  9
$STYLESHEET
  1

  9
$XEDIT
290
    1
  9
$CEPSNTYPE
380
    0
  9
$PSTYLEMODE
290
    1
  9
$EXTNAMES
290
    1
  9
$PSVPSCALE
 40
1
  9
$OLESTARTUP
290
    0
  0
ENDSEC
  0
SECTION
  2
CLASSES
  0
ENDSEC
  0
SECTION
  2
TABLES
  0
TABLE
  2
VPORT
  5
8
100
AcDbSymbolTable
 70
    1
  0
VPORT
  5
31
330
2
100
AcDbSymbolTableRecord
100
AcDbViewportTableRecord
  2
*ACTIVE
 70
    0
 10
0
 20
0
 11
1
 21
1
 12
332.6358968219038
 22
159.6342335359631
 13
0
 23
0
 14
10
 24
10
 15
10
 25
10
 16
0
 26
0
 36
1
 17
0
 27
0
 37
0
 40
658.6849442017898
 41
1.745882352941176
 42
50
 43
0
 44
0
 50
0
 51
0
 71
    0
 72
  100
 73
    1
 74
    3
 75
    0
 76
    0
 77
    0
 78
    0
  0
ENDTAB
  0
TABLE
  2
LTYPE
  5
5
100
AcDbSymbolTable
 70
    4
  0
LTYPE
  5
14
100
AcDbSymbolTableRecord
100
AcDbLinetypeTableRecord
  2
ByBlock
 70
    0
  3

 72
   65
 73
    0
 40
0
  0
LTYPE
  5
15
100
AcDbSymbolTableRecord
100
AcDbLinetypeTableRecord
  2
ByLayer
 70
    0
  3

 72
   65
 73
    0
 40
0
  0
LTYPE
  5
16
100
AcDbSymbolTableRecord
100
AcDbLinetypeTableRecord
  2
Continuous
 70
    0
  3
Solid line
 72
   65
 73
    0
 40
0
  0
LTYPE
  5
32
330
5
100
AcDbSymbolTableRecord
100
AcDbLinetypeTableRecord
  2
DOT
 70
    0
  3
Dot . . . . . . . . . . . . . . . . . . . . . .
 72
   65
 73
    2
 40
6.35
 49
0
 74
    0
 49
-6.35
 74
    0
  0
LTYPE
  5
33
330
5
100
AcDbSymbolTableRecord
100
AcDbLinetypeTableRecord
  2
DOTTINY
 70
    0
  3
Dot (.15x) .....................................
 72
   65
 73
    2
 40
0.9525
 49
0
 74
    0
 49
-0.9525
 74
    0
  0
LTYPE
  5
34
330
5
100
AcDbSymbolTableRecord
100
AcDbLinetypeTableRecord
  2
DOT2
 70
    0
  3
Dot (.5x) .....................................
 72
   65
 73
    2
 40
3.175
 49
0
 74
    0
 49
-3.175
 74
    0
  0
LTYPE
  5
35
330
5
100
AcDbSymbolTableRecord
100
AcDbLinetypeTableRecord
  2
DOTX2
 70
    0
  3
Dot (2x) .  .  .  .  .  .  .  .  .  .  .  .  .
 72
   65
 73
    2
 40
12.7
 49
0
 74
    0
 49
-12.7
 74
    0
  0
LTYPE
  5
36
330
5
100
AcDbSymbolTableRecord
100
AcDbLinetypeTableRecord
  2
DASHED
 70
    0
  3
Dashed _ _ _ _ _ _ _ _ _ _ _ _ _ _ _ _ _
 72
   65
 73
    2
 40
19.05
 49
12.7
 74
    0
 49
-6.35
 74
    0
  0
LTYPE
  5
37
330
5
100
AcDbSymbolTableRecord
100
AcDbLinetypeTableRecord
  2
DASHEDTINY
 70
    0
  3
Dashed (.15x) _ _ _ _ _ _ _ _ _ _ _ _ _ _ _ _ _
 72
   65
 73
    2
 40
2.8575
 49
1.905
 74
    0
 49
-0.9525
 74
    0
  0
LTYPE
  5
38
330
5
100
AcDbSymbolTableRecord
100
AcDbLinetypeTableRecord
  2
DASHED2
 70
    0
  3
Dashed (.5x) _ _ _ _ _ _ _ _ _ _ _ _ _ _ _ _ _
 72
   65
 73
    2
 40
9.524999999999999
 49
6.35
 74
    0
 49
-3.175
 74
    0
  0
LTYPE
  5
39
330
5
100
AcDbSymbolTableRecord
100
AcDbLinetypeTableRecord
  2
DASHEDX2
 70
    0
  3
Dashed (2x) ____  ____  ____  ____  ____  ___
 72
   65
 73
    2
 40
38.09999999999999
 49
25.4
 74
    0
 49
-12.7
 74
    0
  0
LTYPE
  5
3A
330
5
100
AcDbSymbolTableRecord
100
AcDbLinetypeTableRecord
  2
DASHDOT
 70
    0
  3
Dash dot __ . __ . __ . __ . __ . __ . __ . __
 72
   65
 73
    4
 40
25.4
 49
12.7
 74
    0
 49
-6.35
 74
    0
 49
0
 74
    0
 49
-6.35
 74
    0
  0
LTYPE
  5
3B
330
5
100
AcDbSymbolTableRecord
100
AcDbLinetypeTableRecord
  2
DASHDOTTINY
 70
    0
  3
Dash dot (.15x) _._._._._._._._._._._._._._._.
 72
   65
 73
    4
 40
3.81
 49
1.905
 74
    0
 49
-0.9525
 74
    0
 49
0
 74
    0
 49
-0.9525
 74
    0
  0
LTYPE
  5
3C
330
5
100
AcDbSymbolTableRecord
100
AcDbLinetypeTableRecord
  2
DASHDOT2
 70
    0
  3
Dash dot (.5x) _._._._._._._._._._._._._._._.
 72
   65
 73
    4
 40
12.7
 49
6.35
 74
    0
 49
-3.175
 74
    0
 49
0
 74
    0
 49
-3.175
 74
    0
  0
LTYPE
  5
3D
330
5
100
AcDbSymbolTableRecord
100
AcDbLinetypeTableRecord
  2
DASHDOTX2
 70
    0
  3
Dash dot (2x) ____  .  ____  .  ____  .  ___
 72
   65
 73
    4
 40
50.8
 49
25.4
 74
    0
 49
-12.7
 74
    0
 49
0
 74
    0
 49
-12.7
 74
    0
  0
LTYPE
  5
3E
330
5
100
AcDbSymbolTableRecord
100
AcDbLinetypeTableRecord
  2
DIVIDE
 70
    0
  3
Divide ____ . . ____ . . ____ . . ____ . . ____
 72
   65
 73
    6
 40
31.75
 49
12.7
 74
    0
 49
-6.35
 74
    0
 49
0
 74
    0
 49
-6.35
 74
    0
 49
0
 74
    0
 49
-6.35
 74
    0
  0
LTYPE
  5
3F
330
5
100
AcDbSymbolTableRecord
100
AcDbLinetypeTableRecord
  2
DIVIDETINY
 70
    0
  3
Divide (.15x) __..__..__..__..__..__..__..__.._
 72
   65
 73
    6
 40
4.7625
 49
1.905
 74
    0
 49
-0.9525
 74
    0
 49
0
 74
    0
 49
-0.9525
 74
    0
 49
0
 74
    0
 49
-0.9525
 74
    0
  0
LTYPE
  5
40
330
5
100
AcDbSymbolTableRecord
100
AcDbLinetypeTableRecord
  2
DIVIDE2
 70
    0
  3
Divide (.5x) __..__..__..__..__..__..__..__.._
 72
   65
 73
    6
 40
15.875
 49
6.35
 74
    0
 49
-3.175
 74
    0
 49
0
 74
    0
 49
-3.175
 74
    0
 49
0
 74
    0
 49
-3.175
 74
    0
  0
LTYPE
  5
41
330
5
100
AcDbSymbolTableRecord
100
AcDbLinetypeTableRecord
  2
DIVIDEX2
 70
    0
  3
Divide (2x) ________  .  .  ________  .  .  _
 72
   65
 73
    6
 40
63.5
 49
25.4
 74
    0
 49
-12.7
 74
    0
 49
0
 74
    0
 49
-12.7
 74
    0
 49
0
 74
    0
 49
-12.7
 74
    0
  0
LTYPE
  5
42
330
5
100
AcDbSymbolTableRecord
100
AcDbLinetypeTableRecord
  2
BORDER
 70
    0
  3
Border __ __ . __ __ . __ __ . __ __ . __ __ .
 72
   65
 73
    6
 40
44.45
 49
12.7
 74
    0
 49
-6.35
 74
    0
 49
12.7
 74
    0
 49
-6.35
 74
    0
 49
0
 74
    0
 49
-6.35
 74
    0
  0
LTYPE
  5
43
330
5
100
AcDbSymbolTableRecord
100
AcDbLinetypeTableRecord
  2
BORDERTINY
 70
    0
  3
Border (.15x) __.__.__.__.__.__.__.__.__.__.__.
 72
   65
 73
    6
 40
6.6675
 49
1.905
 74
    0
 49
-0.9525
 74
    0
 49
1.905
 74
    0
 49
-0.9525
 74
    0
 49
0
 74
    0
 49
-0.9525
 74
    0
  0
LTYPE
  5
44
330
5
100
AcDbSymbolTableRecord
100
AcDbLinetypeTableRecord
  2
BORDER2
 70
    0
  3
Border (.5x) __.__.__.__.__.__.__.__.__.__.__.
 72
   65
 73
    6
 40
22.225
 49
6.35
 74
    0
 49
-3.175
 74
    0
 49
6.35
 74
    0
 49
-3.175
 74
    0
 49
0
 74
    0
 49
-3.175
 74
    0
  0
LTYPE
  5
45
330
5
100
AcDbSymbolTableRecord
100
AcDbLinetypeTableRecord
  2
BORDERX2
 70
    0
  3
Border (2x) ____  ____  .  ____  ____  .  ___
 72
   65
 73
    6
 40
88.89999999999999
 49
25.4
 74
    0
 49
-12.7
 74
    0
 49
25.4
 74
    0
 49
-12.7
 74
    0
 49
0
 74
    0
 49
-12.7
 74
    0
  0
LTYPE
  5
46
330
5
100
AcDbSymbolTableRecord
100
AcDbLinetypeTableRecord
  2
CENTER
 70
    0
  3
Center ____ _ ____ _ ____ _ ____ _ ____ _ ____
 72
   65
 73
    4
 40
50.8
 49
31.75
 74
    0
 49
-6.35
 74
    0
 49
6.35
 74
    0
 49
-6.35
 74
    0
  0
LTYPE
  5
47
330
5
100
AcDbSymbolTableRecord
100
AcDbLinetypeTableRecord
  2
CENTERTINY
 70
    0
  3
Center (.15x) ___ _ ___ _ ___ _ ___ _ ___ _ ___
 72
   65
 73
    4
 40
7.619999999999999
 49
4.7625
 74
    0
 49
-0.9525
 74
    0
 49
0.9525
 74
    0
 49
-0.9525
 74
    0
  0
LTYPE
  5
48
330
5
100
AcDbSymbolTableRecord
100
AcDbLinetypeTableRecord
  2
CENTER2
 70
    0
  3
Center (.5x) ___ _ ___ _ ___ _ ___ _ ___ _ ___
 72
   65
 73
    4
 40
28.575
 49
19.05
 74
    0
 49
-3.175
 74
    0
 49
3.175
 74
    0
 49
-3.175
 74
    0
  0
LTYPE
  5
49
330
5
100
AcDbSymbolTableRecord
100
AcDbLinetypeTableRecord
  2
CENTERX2
 70
    0
  3
Center (2x) ________  __  ________  __  _____
 72
   65
 73
    4
 40
101.6
 49
63.5
 74
    0
 49
-12.7
 74
    0
 49
12.7
 74
    0
 49
-12.7
 74
    0
  0
ENDTAB
  0
TABLE
  2
LAYER
  5
2
100
AcDbSymbolTable
 70
    1
  0
LAYER
  5
10
330
2
100
AcDbSymbolTableRecord
100
AcDbLayerTableRecord
  2
0
 70
    0
 62
    7
  6
CONTINUOUS
370
   -3
390
F
  0
LAYER
  5
4A
330
2
100
AcDbSymbolTableRecord
100
AcDbLayerTableRecord
  2
TOP_PLATE_ORIENTED
 70
    0
 62
    7
  6
CONTINUOUS
370
   -3
390
F
  0
LAYER
  5
4B
330
2
100
AcDbSymbolTableRecord
100
AcDbLayerTableRecord
  2
none
 70
    0
 62
    7
  6
CONTINUOUS
370
   -3
390
F
  0
ENDTAB
  0
TABLE
  2
STYLE
  5
3
100
AcDbSymbolTable
 70
    3
  0
STYLE
  5
4C
330
2
100
AcDbSymbolTableRecord
100
AcDbTextStyleTableRecord
  2
Standard
 70
    0
 40
0
 41
1
 50
0
 71
    0
 42
1
  3
txt
  4

  0
ENDTAB
  0
TABLE
  2
VIEW
  5
6
100
AcDbSymbolTable
 70
    0
  0
ENDTAB
  0
TABLE
  2
UCS
  5
7
100
AcDbSymbolTable
 70
    0
  0
ENDTAB
  0
TABLE
  2
APPID
  5
9
100
AcDbSymbolTable
 70
    1
  0
APPID
  5
12
100
AcDbSymbolTableRecord
100
AcDbRegAppTableRecord
  2
ACAD
 70
    0
  0
APPID
  5
4D
100
AcDbSymbolTableRecord
100
AcDbRegAppTableRecord
  2
LibreCad
 70
    0
  0
ENDTAB
  0
TABLE
  2
DIMSTYLE
  5
A
100
AcDbSymbolTable
 70
    1
  0
DIMSTYLE
105
4E
330
A
100
AcDbSymbolTableRecord
100
AcDbDimStyleTableRecord
  2
Standard
 70
    0
 40
2.5
 41
2.5
 42
0.625
 43
0.38
 44
1.25
 45
0
 46
0
 47
0
 48
0
 49
1
140
2.5
141
0.09
142
0
143
25.4
144
1
145
0
146
1
147
0.625
 71
    0
 72
    0
 73
    0
 74
    1
 75
    0
 76
    0
 77
    0
 78
    8
170
    0
171
    2
172
    0
173
    0
174
    0
175
    0
176
    0
177
    0
178
    0
270
    2
271
    2
272
    4
273
    2
274
    2
275
    0
280
    0
281
    0
282
    0
283
    1
284
    0
285
    0
286
    0
287
    3
288
    0
340
4C
  0
ENDTAB
  0
TABLE
  2
BLOCK_RECORD
  5
1
100
AcDbSymbolTable
 70
    2
  0
BLOCK_RECORD
  5
1F
100
AcDbSymbolTableRecord
100
AcDbBlockTableRecord
  2
*Model_Space
  0
BLOCK_RECORD
  5
1E
100
AcDbSymbolTableRecord
100
AcDbBlockTableRecord
  2
*Paper_Space
  0
ENDTAB
  0
ENDSEC
  0
SECTION
  2
BLOCKS
  0
BLOCK
  5
20
100
AcDbEntity
  8
0
100
AcDbBlockBegin
  2
*Model_Space
 70
    0
 10
0
 20
0
 30
0
  3
*Model_Space
  1

  0
ENDBLK
  5
21
100
AcDbEntity
  8
0
100
AcDbBlockEnd
  0
BLOCK
  5
1C
100
AcDbEntity
  8
0
100
AcDbBlockBegin
  2
*Paper_Space
 70
    0
 10
0
 20
0
 30
0
  3
*Paper_Space
  1

  0
ENDBLK
  5
1D
100
AcDbEntity
  8
0
100
AcDbBlockEnd
  0
ENDSEC
  0
SECTION
  2
ENTITIES
  0
SPLINE
  5
4F
100
AcDbEntity
  8
TOP_PLATE_ORIENTED
  6
ByLayer
 62
  256
100
AcDbSpline
210
0
220
0
230
0
 70
 4096
 71
    3
 72
   32
 73
   28
 74
    0
 42
1e-07
 43
1e-07
 40
0
 40
0
 40
0
 40
0
 40
0.1053675
 40
0.1053675
 40
0.1053675
 40
0.210735
 40
0.210735
 40
0.210735
 40
0.3161025
 40
0.3161025
 40
0.3161025
 40
0.42147
 40
0.42147
 40
0.42147
 40
0.5268374
 40
0.5268374
 40
0.5268374
 40
0.6322049
 40
0.6322049
 40
0.6322049
 40
0.7375724
 40
0.7375724
 40
0.7375724
 40
0.8429399
 40
0.8429399
 40
0.8429399
 40
1
 40
1
 40
1
 40
1
 10
-241.760739015
 20
-173.392627511
 30
0
 10
-251.230924733
 20
-172.388914524
 30
0
 10
-259.705002355
 20
-170.489088473
 30
0
 10
-267.496419169
 20
-167.975131014
 30
0
 10
-275.287835982
 20
-165.461173554
 30
0
 10
-282.396591989
 20
-162.333084687
 30
0
 10
-288.970693803
 20
-158.724013277
 30
0
 10
-295.544795618
 20
-155.114941867
 30
0
 10
-301.584243241
 20
-151.024887913
 30
0
 10
-307.17388105
 20
-146.53017863
 30
0
 10
-312.76351886
 20
-142.035469347
 30
0
 10
-317.903346856
 20
-137.136104734
 30
0
 10
-322.64171304
 20
-131.875579344
 30
0
 10
-327.380079223
 20
-126.615053954
 30
0
 10
-331.716983594
 20
-120.993367786
 30
0
 10
-335.678866741
 20
-115.034307171
 30
0
 10
-339.639058111
 20
-109.073724609
 30
0
 10
-343.22930359
 20
-102.780333443
 30
0
 10
-346.449603178
 20
-96.154133672
 30
0
 10
-349.67225648
 20
-89.530051335
 30
0
 10
-352.528053417
 20
-82.575939776
 30
0
 10
-355.01699399
 20
-75.29179899499999
 30
0
 10
-357.505272628
 20
-68.007062727
 30
0
 10
-359.624709095
 20
-60.390510777
 30
0
 10
-361.356313081
 20
-52.42505919
 30
0
 10
-363.935875965
 20
-40.550409911
 30
0
 10
-365.66036573
 20
-27.906524648
 30
0
 10
-366.386092972
 20
-14.364138361
 30
0
  0
SPLINE
  5
50
100
AcDbEntity
  8
TOP_PLATE_ORIENTED
  6
ByLayer
 62
  256
100
AcDbSpline
210
0
220
0
230
0
 70
 4096
 71
    3
 72
   47
 73
   43
 74
    0
 42
1e-07
 43
1e-07
 40
0
 40
0
 40
0
 40
0
 40
0.0555556
 40
0.0555556
 40
0.0555556
 40
0.1111111
 40
0.1111111
 40
0.1111111
 40
0.2222222
 40
0.2222222
 40
0.2222222
 40
0.3333333
 40
0.3333333
 40
0.3333333
 40
0.3888889
 40
0.3888889
 40
0.3888889
 40
0.4444444
 40
0.4444444
 40
0.4444444
 40
0.5
 40
0.5
 40
0.5
 40
0.6111111
 40
0.6111111
 40
0.6111111
 40
0.6666666999999999
 40
0.6666666999999999
 40
0.6666666999999999
 40
0.7222221999999999
 40
0.7222221999999999
 40
0.7222221999999999
 40
0.7777778
 40
0.7777778
 40
0.7777778
 40
0.8333332999999999
 40
0.8333332999999999
 40
0.8333332999999999
 40
0.8888889
 40
0.8888889
 40
0.8888889
 40
1
 40
1
 40
1
 40
1
 10
-366.386092972
 20
14.068949564
 30
0
 10
-367.382395423
 20
13.901523707
 30
0
 10
-368.338422289
 20
13.716969937
 30
0
 10
-369.254173568
 20
13.515288253
 30
0
 10
-370.166550592
 20
13.314609011
 30
0
 10
-371.044249985
 20
13.098482856
 30
0
 10
-371.88727175
 20
12.866909788
 30
0
 10
-373.578901604
 20
12.402089108
 30
0
 10
-375.161638458
 20
11.878611107
 30
0
 10
-376.711589382
 20
11.254756122
 30
0
 10
-378.2618852
 20
10.62851146
 30
0
 10
-379.781024595
 20
9.901536986
 30
0
 10
-381.233158711
 20
9.018219460999999
 30
0
 10
-381.959225175
 20
8.575982077000001
 30
0
 10
-382.668538927
 20
8.093301392000001
 30
0
 10
-383.331241422
 20
7.578327382
 30
0
 10
-383.993943917
 20
7.063353372
 30
0
 10
-384.610035156
 20
6.516086037
 30
0
 10
-385.178682391
 20
5.91311093
 30
0
 10
-385.747329627
 20
5.310135822
 30
0
 10
-386.268532859
 20
4.651452942
 30
0
 10
-386.700865903
 20
3.935709227
 30
0
 10
-387.568877923
 20
2.502630655
 30
0
 10
-388.065708992
 20
0.848774885
 30
0
 10
-387.874435425
 20
-0.896554474
 30
0
 10
-387.780471607
 20
-1.770014724
 30
0
 10
-387.51840668
 20
-2.668209907
 30
0
 10
-387.07278587
 20
-3.556288321
 30
0
 10
-386.627165059
 20
-4.444366736
 30
0
 10
-385.997988364
 20
-5.322328382
 30
0
 10
-385.254447834
 20
-6.127459424
 30
0
 10
-384.510907304
 20
-6.932590465
 30
0
 10
-383.653002939
 20
-7.664890901
 30
0
 10
-382.683054713
 20
-8.357446244
 30
0
 10
-381.710374034
 20
-9.051766846
 30
0
 10
-380.633846854
 20
-9.701046576
 30
0
 10
-379.453473173
 20
-10.305285433
 30
0
 10
-378.274407684
 20
-10.907596936
 30
0
 10
-377.003965834
 20
-11.460058071
 30
0
 10
-375.642147622
 20
-11.96266884
 30
0
 10
-372.923368059
 20
-12.965806221
 30
0
 10
-369.846750409
 20
-13.782788005
 30
0
 10
-366.386092972
 20
-14.364138361
 30
0
  0
SPLINE
  5
51
100
AcDbEntity
  8
TOP_PLATE_ORIENTED
  6
ByLayer
 62
  256
100
AcDbSpline
210
0
220
0
230
0
 70
 4096
 71
    3
 72
   32
 73
   28
 74
    0
 42
1e-07
 43
1e-07
 40
0
 40
0
 40
0
 40
0
 40
0.1561504
 40
0.1561504
 40
0.1561504
 40
0.2616316
 40
0.2616316
 40
0.2616316
 40
0.3671128
 40
0.3671128
 40
0.3671128
 40
0.472594
 40
0.472594
 40
0.472594
 40
0.5780752
 40
0.5780752
 40
0.5780752
 40
0.6835564
 40
0.6835564
 40
0.6835564
 40
0.7890376
 40
0.7890376
 40
0.7890376
 40
0.8945187999999999
 40
0.8945187999999999
 40
0.8945187999999999
 40
1
 40
1
 40
1
 40
1
 10
-366.371078117
 20
14.347740917
 30
0
 10
-365.636529454
 20
27.784758351
 30
0
 10
-363.918239468
 20
40.336788046
 30
0
 10
-361.356313081
 20
52.129870393
 30
0
 10
-359.624709095
 20
60.09532198
 30
0
 10
-357.505272628
 20
67.71187393
 30
0
 10
-355.01699399
 20
74.996610197
 30
0
 10
-352.528053417
 20
82.280750979
 30
0
 10
-349.67225648
 20
89.234862538
 30
0
 10
-346.449603178
 20
95.85894487500001
 30
0
 10
-343.22930359
 20
102.485144646
 30
0
 10
-339.639058111
 20
108.778535812
 30
0
 10
-335.678866741
 20
114.739118374
 30
0
 10
-331.716983594
 20
120.698178989
 30
0
 10
-327.380079223
 20
126.319865157
 30
0
 10
-322.64171304
 20
131.580390547
 30
0
 10
-317.903346856
 20
136.840915937
 30
0
 10
-312.76351886
 20
141.74028055
 30
0
 10
-307.17388105
 20
146.234989833
 30
0
 10
-301.584243241
 20
150.729699116
 30
0
 10
-295.544795618
 20
154.81975307
 30
0
 10
-288.970693803
 20
158.42882448
 30
0
 10
-282.396591989
 20
162.03789589
 30
0
 10
-275.287835982
 20
165.165984757
 30
0
 10
-267.496419169
 20
167.679942217
 30
0
 10
-259.705002355
 20
170.193899676
 30
0
 10
-251.230924733
 20
172.093725727
 30
0
 10
-241.760739015
 20
173.097438714
 30
0
  0
SPLINE
  5
52
100
AcDbEntity
  8
TOP_PLATE_ORIENTED
  6
ByLayer
 62
  256
100
AcDbSpline
210
0
220
0
230
0
 70
 4096
 71
    3
 72
   11
 73
    7
 74
    0
 42
1e-07
 43
1e-07
 40
0
 40
0
 40
0
 40
0
 40
0.5373858
 40
0.5373858
 40
0.5373858
 40
1
 40
1
 40
1
 40
1
 10
126.660707252
 20
-196.943103628
 30
0
 10
118.253919046
 20
-193.249641761
 30
0
 10
105.999870903
 20
-187.756180292
 30
0
 10
94.07420480899999
 20
-186.175380201
 30
0
 10
83.807870974
 20
-184.814531983
 30
0
 10
73.784894721
 20
-186.353281402
 30
0
 10
66.69793306299999
 20
-194.370997905
 30
0
  0
SPLINE
  5
53
100
AcDbEntity
  8
TOP_PLATE_ORIENTED
  6
ByLayer
 62
  256
100
AcDbSpline
210
0
220
0
230
0
 70
 4096
 71
    3
 72
   17
 73
   13
 74
    0
 42
1e-07
 43
1e-07
 40
0
 40
0
 40
0
 40
0
 40
0.1290208
 40
0.1290208
 40
0.1290208
 40
0.4193472
 40
0.4193472
 40
0.4193472
 40
0.7096736
 40
0.7096736
 40
0.7096736
 40
1
 40
1
 40
1
 40
1
 10
-140.559077381
 20
-158.152947738
 30
0
 10
-144.148846522
 20
-159.686410017
 30
0
 10
-147.81853383
 20
-161.127855904
 30
0
 10
-151.568139305
 20
-162.477285399
 30
0
 10
-160.006977946
 20
-165.512234871
 30
0
 10
-168.859722639
 20
-168.070620089
 30
0
 10
-178.209731497
 20
-170.056463967
 30
0
 10
-187.559740355
 20
-172.042307845
 30
0
 10
-197.407013377
 20
-173.455610383
 30
0
 10
-207.907872798
 20
-174.116384868
 30
0
 10
-218.40873222
 20
-174.777159354
 30
0
 10
-229.56317804
 20
-174.685405787
 30
0
 10
-241.760739015
 20
-173.392627511
 30
0
  0
SPLINE
  5
54
100
AcDbEntity
  8
TOP_PLATE_ORIENTED
  6
ByLayer
 62
  256
100
AcDbSpline
210
0
220
0
230
0
 70
 4096
 71
    3
 72
   11
 73
    7
 74
    0
 42
1e-07
 43
1e-07
 40
0
 40
0
 40
0
 40
0
 40
0.5185756
 40
0.5185756
 40
0.5185756
 40
1
 40
1
 40
1
 40
1
 10
-103.005945409
 20
-161.28701485
 30
0
 10
-108.209267239
 20
-156.756815862
 30
0
 10
-115.022926488
 20
-154.86250301
 30
0
 10
-121.976701187
 20
-154.731713981
 30
0
 10
-128.432302764
 20
-154.610294767
 30
0
 10
-135.008662986
 20
-156.008770382
 30
0
 10
-140.559077381
 20
-158.152947738
 30
0
  0
LINE
  5
55
100
AcDbEntity
  8
TOP_PLATE_ORIENTED
  6
ByLayer
 62
  256
100
AcDbLine
 10
-103.005945409
 20
-161.28701485
 11
-95.14887093199999
 21
-155.9936374
  0
ARC
  5
56
100
AcDbEntity
  8
TOP_PLATE_ORIENTED
  6
ByLayer
 62
  256
100
AcDbCircle
 10
-77.595995738
 20
-144.168117099
 40
21.164743277
100
AcDbArc
 50
173.479823752
 51
-146.031518069
  0
SPLINE
  5
57
100
AcDbEntity
  8
TOP_PLATE_ORIENTED
  6
ByLayer
 62
  256
100
AcDbSpline
210
0
220
0
230
0
 70
 4096
 71
    3
 72
   32
 73
   28
 74
    0
 42
1e-07
 43
1e-07
 40
0
 40
0
 40
0
 40
0
 40
0.1433131
 40
0.1433131
 40
0.1433131
 40
0.2510699
 40
0.2510699
 40
0.2510699
 40
0.3729399
 40
0.3729399
 40
0.3729399
 40
0.5195426
 40
0.5195426
 40
0.5195426
 40
0.6572372
 40
0.6572372
 40
0.6572372
 40
0.7678946999999999
 40
0.7678946999999999
 40
0.7678946999999999
 40
0.8885999
 40
0.8885999
 40
0.8885999
 40
0.9203256999999999
 40
0.9203256999999999
 40
0.9203256999999999
 40
1
 40
1
 40
1
 40
1
 10
66.092402146
 20
-173.876433105
 30
0
 10
67.08891394299999
 20
-163.52360378
 30
0
 10
62.132153105
 20
-154.350324505
 30
0
 10
55.666808567
 20
-146.909694103
 30
0
 10
50.805534002
 20
-141.315104813
 30
0
 10
45.09138251
 20
-136.700067566
 30
0
 10
38.765293345
 20
-133.23807224
 30
0
 10
31.610654555
 20
-129.322647496
 30
0
 10
23.673285731
 20
-126.882079721
 30
0
 10
15.748849084
 20
-124.594362595
 30
0
 10
6.216199656
 20
-121.842368186
 30
0
 10
-3.297735967
 20
-119.311559828
 30
0
 10
-13.022346553
 20
-117.743731602
 30
0
 10
-22.156053016
 20
-116.27117055
 30
0
 10
-31.475609489
 20
-115.648116549
 30
0
 10
-40.715337612
 20
-115.566803771
 30
0
 10
-48.140798212
 20
-115.50145717
 30
0
 10
-55.514702058
 20
-115.785991517
 30
0
 10
-63.014046006
 20
-116.628906338
 30
0
 10
-71.194323134
 20
-117.54835701
 30
0
 10
-79.523854231
 20
-119.132192518
 30
0
 10
-86.39264707300001
 20
-123.441503546
 30
0
 10
-88.19801996699999
 20
-124.574149922
 30
0
 10
-89.90248026
 20
-125.895081107
 30
0
 10
-91.42844017
 20
-127.391837381
 30
0
 10
-95.26064894300001
 20
-131.150705802
 30
0
 10
-97.967083692
 20
-136.018475582
 30
0
 10
-98.623843984
 20
-141.764795205
 30
0
  0
ARC
  5
58
100
AcDbEntity
  8
TOP_PLATE_ORIENTED
  6
ByLayer
 62
  256
100
AcDbCircle
 10
34.317386991
 20
-170.817928375
 40
31.921873993
100
AcDbArc
 50
-36.031518069
 51
-5.498068251
  0
LINE
  5
59
100
AcDbEntity
  8
TOP_PLATE_ORIENTED
  6
ByLayer
 62
  256
100
AcDbLine
 10
60.132400109
 20
-189.59533866
 11
66.69793306299999
 21
-194.370997905
  0
SPLINE
  5
5A
100
AcDbEntity
  8
TOP_PLATE_ORIENTED
  6
ByLayer
 62
  256
100
AcDbSpline
210
0
220
0
230
0
 70
 4096
 71
    3
 72
   14
 73
   10
 74
    0
 42
1e-07
 43
1e-07
 40
0
 40
0
 40
0
 40
0
 40
0.321866
 40
0.321866
 40
0.321866
 40
0.643732
 40
0.643732
 40
0.643732
 40
1
 40
1
 40
1
 40
1
 10
198.239260985
 20
-220.015144067
 30
0
 10
188.907510233
 20
-219.026103334
 30
0
 10
180.456817455
 20
-217.24445027
 30
0
 10
172.455118028
 20
-215.058876377
 30
0
 10
164.453418601
 20
-212.873302484
 30
0
 10
156.900712526
 20
-210.283807763
 30
0
 10
149.659805145
 20
-207.413814485
 30
0
 10
141.644995475
 20
-204.237042465
 30
0
 10
134.012086052
 20
-200.716707531
 30
0
 10
126.660707252
 20
-196.943103628
 30
0
  0
SPLINE
  5
5B
100
AcDbEntity
  8
TOP_PLATE_ORIENTED
  6
ByLayer
 62
  256
100
AcDbSpline
210
0
220
0
230
0
 70
 4096
 71
    3
 72
   26
 73
   22
 74
    0
 42
1e-07
 43
1e-07
 40
0
 40
0
 40
0
 40
0
 40
0.1818182
 40
0.1818182
 40
0.1818182
 40
0.2727273
 40
0.2727273
 40
0.2727273
 40
0.4545455
 40
0.4545455
 40
0.4545455
 40
0.6363635999999999
 40
0.6363635999999999
 40
0.6363635999999999
 40
0.7272727
 40
0.7272727
 40
0.7272727
 40
0.8181818
 40
0.8181818
 40
0.8181818
 40
1
 40
1
 40
1
 40
1
 10
388.239260985
 20
-0.147594399
 30
0
 10
388.238727619
 20
-26.272406251
 30
0
 10
386.552800205
 20
-50.523755116
 30
0
 10
382.997748009
 20
-72.697408204
 30
0
 10
381.219955229
 20
-83.783938306
 30
0
 10
378.974255572
 20
-94.350348966
 30
0
 10
376.234462811
 20
-104.367531898
 30
0
 10
370.754093473
 20
-124.401026481
 30
0
 10
363.301029638
 20
-142.241698486
 30
0
 10
353.633918342
 20
-157.621262967
 30
0
 10
343.96498636
 20
-172.998803596
 30
0
 10
332.083194323
 20
-185.916556608
 30
0
 10
317.693746442
 20
-196.046830685
 30
0
 10
310.498504067
 20
-201.111391438
 30
0
 10
302.675131399
 20
-205.477730398
 30
0
 10
294.180423542
 20
-209.097821541
 30
0
 10
285.685715685
 20
-212.717912684
 30
0
 10
276.519672639
 20
-215.591756009
 30
0
 10
266.633897308
 20
-217.665553912
 30
0
 10
246.860372777
 20
-221.810955587
 30
0
 10
224.217181142
 20
-222.766471128
 30
0
 10
198.239260985
 20
-220.015144067
 30
0
  0
SPLINE
  5
5C
100
AcDbEntity
  8
TOP_PLATE_ORIENTED
  6
ByLayer
 62
  256
100
AcDbSpline
210
0
220
0
230
0
 70
 4096
 71
    3
 72
   23
 73
   19
 74
    0
 42
1e-07
 43
1e-07
 40
0
 40
0
 40
0
 40
0
 40
0.1818182
 40
0.1818182
 40
0.1818182
 40
0.2727273
 40
0.2727273
 40
0.2727273
 40
0.4545455
 40
0.4545455
 40
0.4545455
 40
0.6363635999999999
 40
0.6363635999999999
 40
0.6363635999999999
 40
0.7272727
 40
0.7272727
 40
0.7272727
 40
1
 40
1
 40
1
 40
1
 10
198.239260985
 20
219.71995527
 30
0
 10
224.217181142
 20
222.471282331
 30
0
 10
246.860372777
 20
221.51576679
 30
0
 10
266.633897308
 20
217.370365115
 30
0
 10
276.519672639
 20
215.296567212
 30
0
 10
285.685715685
 20
212.422723887
 30
0
 10
294.180423542
 20
208.802632744
 30
0
 10
311.168636437
 20
201.56111342
 30
0
 10
325.477152589
 20
191.340876642
 30
0
 10
337.433846392
 20
178.506383498
 30
0
 10
349.388438464
 20
165.669554096
 30
0
 10
358.98978216
 20
150.216883171
 30
0
 10
366.504083148
 20
132.444281622
 30
0
 10
370.260784185
 20
123.557481238
 30
0
 10
373.49467005
 20
114.089526033
 30
0
 10
376.234462811
 20
104.072343101
 30
0
 10
384.450758209
 20
74.017367408
 30
0
 10
388.236322514
 20
39.037246337
 30
0
 10
388.239260985
 20
-0.147594399
 30
0
  0
SPLINE
  5
5D
100
AcDbEntity
  8
TOP_PLATE_ORIENTED
  6
ByLayer
 62
  256
100
AcDbSpline
210
0
220
0
230
0
 70
 4096
 71
    3
 72
   14
 73
   10
 74
    0
 42
1e-07
 43
1e-07
 40
0
 40
0
 40
0
 40
0
 40
0.356268
 40
0.356268
 40
0.356268
 40
0.678134
 40
0.678134
 40
0.678134
 40
1
 40
1
 40
1
 40
1
 10
126.660707252
 20
196.647914831
 30
0
 10
134.012086052
 20
200.421518734
 30
0
 10
141.644995475
 20
203.941853668
 30
0
 10
149.659805145
 20
207.118625688
 30
0
 10
156.900712526
 20
209.988618966
 30
0
 10
164.453418601
 20
212.578113687
 30
0
 10
172.455118028
 20
214.76368758
 30
0
 10
180.456817455
 20
216.949261473
 30
0
 10
188.907510233
 20
218.730914537
 30
0
 10
198.239260985
 20
219.71995527
 30
0
  0
SPLINE
  5
5E
100
AcDbEntity
  8
TOP_PLATE_ORIENTED
  6
ByLayer
 62
  256
100
AcDbSpline
210
0
220
0
230
0
 70
 4096
 71
    3
 72
   11
 73
    7
 74
    0
 42
1e-07
 43
1e-07
 40
0
 40
0
 40
0
 40
0
 40
0.4626142
 40
0.4626142
 40
0.4626142
 40
1
 40
1
 40
1
 40
1
 10
66.69793306299999
 20
194.075809108
 30
0
 10
73.784894721
 20
186.058092605
 30
0
 10
83.807870974
 20
184.519343186
 30
0
 10
94.07420480899999
 20
185.880191404
 30
0
 10
105.999870903
 20
187.460991495
 30
0
 10
118.253919046
 20
192.954452964
 30
0
 10
126.660707252
 20
196.647914831
 30
0
  0
LINE
  5
5F
100
AcDbEntity
  8
TOP_PLATE_ORIENTED
  6
ByLayer
 62
  256
100
AcDbLine
 10
66.69793306299999
 20
194.075809108
 11
60.132400109
 21
189.300149863
  0
ARC
  5
60
100
AcDbEntity
  8
TOP_PLATE_ORIENTED
  6
ByLayer
 62
  256
100
AcDbCircle
 10
34.317386991
 20
170.522739578
 40
31.921873993
100
AcDbArc
 50
5.498068251
 51
36.031518069
  0
SPLINE
  5
61
100
AcDbEntity
  8
TOP_PLATE_ORIENTED
  6
ByLayer
 62
  256
100
AcDbSpline
210
0
220
0
230
0
 70
 4096
 71
    3
 72
   32
 73
   28
 74
    0
 42
1e-07
 43
1e-07
 40
0
 40
0
 40
0
 40
0
 40
0.07967429999999999
 40
0.07967429999999999
 40
0.07967429999999999
 40
0.1114001
 40
0.1114001
 40
0.1114001
 40
0.2321053
 40
0.2321053
 40
0.2321053
 40
0.3427628
 40
0.3427628
 40
0.3427628
 40
0.4804574
 40
0.4804574
 40
0.4804574
 40
0.6270601
 40
0.6270601
 40
0.6270601
 40
0.7489300999999999
 40
0.7489300999999999
 40
0.7489300999999999
 40
0.8566868999999999
 40
0.8566868999999999
 40
0.8566868999999999
 40
1
 40
1
 40
1
 40
1
 10
-98.623843984
 20
141.469606408
 30
0
 10
-97.967083692
 20
135.723286785
 30
0
 10
-95.26064894300001
 20
130.855517005
 30
0
 10
-91.42844017
 20
127.096648583
 30
0
 10
-89.90248026
 20
125.59989231
 30
0
 10
-88.19801996699999
 20
124.278961125
 30
0
 10
-86.39264707300001
 20
123.146314749
 30
0
 10
-79.523854231
 20
118.837003721
 30
0
 10
-71.194323134
 20
117.253168213
 30
0
 10
-63.014046006
 20
116.333717541
 30
0
 10
-55.514702058
 20
115.49080272
 30
0
 10
-48.140798212
 20
115.206268373
 30
0
 10
-40.715337612
 20
115.271614974
 30
0
 10
-31.475609489
 20
115.352927752
 30
0
 10
-22.156053016
 20
115.975981753
 30
0
 10
-13.022346553
 20
117.448542805
 30
0
 10
-3.297735967
 20
119.016371031
 30
0
 10
6.216199656
 20
121.547179389
 30
0
 10
15.748849084
 20
124.299173798
 30
0
 10
23.673285731
 20
126.586890924
 30
0
 10
31.610654555
 20
129.027458699
 30
0
 10
38.765293345
 20
132.942883443
 30
0
 10
45.09138251
 20
136.404878769
 30
0
 10
50.805534002
 20
141.019916016
 30
0
 10
55.666808567
 20
146.614505306
 30
0
 10
62.132153105
 20
154.055135708
 30
0
 10
67.08891394299999
 20
163.228414983
 30
0
 10
66.092402146
 20
173.581244308
 30
0
  0
ARC
  5
62
100
AcDbEntity
  8
TOP_PLATE_ORIENTED
  6
ByLayer
 62
  256
100
AcDbCircle
 10
-77.595995738
 20
143.872928302
 40
21.164743277
100
AcDbArc
 50
146.031518069
 51
-173.479823752
  0
LINE
  5
63
100
AcDbEntity
  8
TOP_PLATE_ORIENTED
  6
ByLayer
 62
  256
100
AcDbLine
 10
-95.14887093199999
 20
155.698448603
 11
-103.005945409
 21
160.991826053
  0
SPLINE
  5
64
100
AcDbEntity
  8
TOP_PLATE_ORIENTED
  6
ByLayer
 62
  256
100
AcDbSpline
210
0
220
0
230
0
 70
 4096
 71
    3
 72
   11
 73
    7
 74
    0
 42
1e-07
 43
1e-07
 40
0
 40
0
 40
0
 40
0
 40
0.4814244
 40
0.4814244
 40
0.4814244
 40
1
 40
1
 40
1
 40
1
 10
-140.559077381
 20
157.857758941
 30
0
 10
-135.008662986
 20
155.713581585
 30
0
 10
-128.432302764
 20
154.31510597
 30
0
 10
-121.976701187
 20
154.436525184
 30
0
 10
-115.022926488
 20
154.567314213
 30
0
 10
-108.209267239
 20
156.461627065
 30
0
 10
-103.005945409
 20
160.991826053
 30
0
  0
SPLINE
  5
65
100
AcDbEntity
  8
TOP_PLATE_ORIENTED
  6
ByLayer
 62
  256
100
AcDbSpline
210
0
220
0
230
0
 70
 4096
 71
    3
 72
   17
 73
   13
 74
    0
 42
1e-07
 43
1e-07
 40
0
 40
0
 40
0
 40
0
 40
0.2903264
 40
0.2903264
 40
0.2903264
 40
0.5806528
 40
0.5806528
 40
0.5806528
 40
0.8709792
 40
0.8709792
 40
0.8709792
 40
1
 40
1
 40
1
 40
1
 10
-241.760739015
 20
173.097438714
 30
0
 10
-229.56317804
 20
174.39021699
 30
0
 10
-218.40873222
 20
174.481970557
 30
0
 10
-207.907872798
 20
173.821196071
 30
0
 10
-197.407013377
 20
173.160421586
 30
0
 10
-187.559740355
 20
171.747119048
 30
0
 10
-178.209731497
 20
169.76127517
 30
0
 10
-168.859722639
 20
167.775431292
 30
0
 10
-160.006977946
 20
165.217046074
 30
0
 10
-151.568139305
 20
162.182096602
 30
0
 10
-147.81853383
 20
160.832667107
 30
0
 10
-144.148846522
 20
159.39122122
 30
0
 10
-140.559077381
 20
157.857758941
 30
0
  0
ENDSEC
  0
SECTION
  2
OBJECTS
  0
DICTIONARY
  5
C
100
AcDbDictionary
281
    1
  3
ACAD_GROUP
350
D
  0
DICTIONARY
  5
D
330
C
100
AcDbDictionary
281
    1
  0
PLOTSETTINGS
  5
66
100
AcDbPlotSettings
  6
1x1
 40
0
 41
0
 42
0
 43
0
  0
ENDSEC
  0
EOF
