999
dxfrw 0.6.3
  0
SECTION
  2
HEADER
  9
$ACADVER
  1
AC1015
  9
$DWGCODEPAGE
  3
ANSI_1252
  9
$INSBASE
 10
0
 20
0
 30
0
  9
$EXTMIN
 10
-376.651623967
 20
-221.4913640104211
 30
0
  9
$EXTMAX
 10
376.651623967
 20
221.3599408737914
 30
0
  9
$LIMMIN
 10
0
 20
0
  9
$LIMMAX
 10
420
 20
297
  9
$ORTHOMODE
 70
    0
  9
$REGENMODE
 70
    1
  9
$FILLMODE
 70
    1
  9
$QTEXTMODE
 70
    0
  9
$MIRRTEXT
 70
    0
  9
$LTSCALE
 40
1
  9
$ATTMODE
 70
    0
  9
$TEXTSIZE
 40
2.5
  9
$TRACEWID
 40
15.68
  9
$TEXTSTYLE
  7
STANDARD
  9
$CLAYER
  8
0
  9
$CELTYPE
  6
BYLAYER
  9
$CECOLOR
 62
  256
  9
$CELTSCALE
 40
1
  9
$DISPSILH
 70
    0
  9
$DIMSCALE
 40
2.5
  9
$DIMASZ
 40
2.5
  9
$DIMEXO
 40
0.625
  9
$DIMDLI
 40
3.75
  9
$DIMRND
 40
0
  9
$DIMDLE
 40
0
  9
$DIMEXE
 40
1.25
  9
$DIMTP
 40
0
  9
$DIMTM
 40
0
  9
$DIMTXT
 40
2.5
  9
$DIMCEN
 40
2.5
  9
$DIMTSZ
 40
0
  9
$DIMTOL
 70
    0
  9
$DIMLIM
 70
    0
  9
$DIMTIH
 70
    0
  9
$DIMTOH
 70
    0
  9
$DIMSE1
 70
    0
  9
$DIMSE2
 70
    0
  9
$DIMTAD
 70
    1
  9
$DIMZIN
 70
    8
  9
$DIMBLK
  1

  9
$DIMASO
 70
    1
  9
$DIMSHO
 70
    1
  9
$DIMPOST
  1

  9
$DIMAPOST
  1

  9
$DIMALT
 70
    0
  9
$DIMALTD
 70
    3
  9
$DIMALTF
 40
0.03937
  9
$DIMLFAC
 40
1
  9
$DIMTOFL
 70
    1
  9
$DIMTVP
 40
0
  9
$DIMTIX
 70
    0
  9
$DIMSOXD
 70
    0
  9
$DIMSAH
 70
    0
  9
$DIMBLK1
  1

  9
$DIMBLK2
  1

  9
$DIMSTYLE
  2
STANDARD
  9
$DIMCLRD
 70
    0
  9
$DIMCLRE
 70
    0
  9
$DIMCLRT
 70
    0
  9
$DIMTFAC
 40
1
  9
$DIMGAP
 40
0.625
  9
$DIMJUST
 70
    0
  9
$DIMSD1
 70
    0
  9
$DIMSD2
 70
    0
  9
$DIMTOLJ
 70
    0
  9
$DIMTZIN
 70
    8
  9
$DIMALTZ
 70
    0
  9
$DIMALTTZ
 70
    0
  9
$DIMUPT
 70
    0
  9
$DIMDEC
 70
    2
  9
$DIMTDEC
 70
    2
  9
$DIMALTU
 70
    2
  9
$DIMALTTD
 70
    3
  9
$DIMTXSTY
  7
STANDARD
  9
$DIMAUNIT
 70
    0
  9
$DIMADEC
 70
    0
  9
$DIMALTRND
 40
0
  9
$DIMAZIN
 70
    0
  9
$DIMDSEP
 70
   44
  9
$DIMATFIT
 70
    3
  9
$DIMFRAC
 70
    0
  9
$DIMLDRBLK
  1
STANDARD
  9
$DIMLUNIT
 70
    2
  9
$DIMLWD
 70
   -2
  9
$DIMLWE
 70
   -2
  9
$DIMTMOVE
 70
    0
  9
$LUNITS
 70
    2
  9
$LUPREC
 70
    4
  9
$SKETCHINC
 40
1
  9
$FILLETRAD
 40
0
  9
$AUNITS
 70
    0
  9
$AUPREC
 70
    2
  9
$MENU
  1
.
  9
$ELEVATION
 40
0
  9
$PELEVATION
 40
0
  9
$THICKNESS
 40
0
  9
$LIMCHECK
 70
    0
  9
$CHAMFERA
 40
0
  9
$CHAMFERB
 40
0
  9
$CHAMFERC
 40
0
  9
$CHAMFERD
 40
0
  9
$SKPOLY
 70
    0
  9
$USRTIMER
 70
    1
  9
$ANGBASE
 50
0
  9
$ANGDIR
 70
    0
  9
$PDMODE
 70
   96
  9
$PDSIZE
 40
-2
  9
$PLINEWID
 40
0
  9
$SPLFRAME
 70
    0
  9
$SPLINETYPE
 70
    2
  9
$SPLINESEGS
 70
    8
  9
$HANDSEED
  5
20000
  9
$SURFTAB1
 70
    6
  9
$SURFTAB2
 70
    6
  9
$SURFTYPE
 70
    6
  9
$SURFU
 70
    6
  9
$SURFV
 70
    6
  9
$UCSBASE
  2

  9
$UCSNAME
  2

  9
$UCSORG
 10
0
 20
0
 30
0
  9
$UCSXDIR
 10
1
 20
0
 30
0
  9
$UCSYDIR
 10
0
 20
1
 30
0
  9
$UCSORTHOREF
  2

  9
$UCSORTHOVIEW
 70
    0
  9
$UCSORGTOP
 10
0
 20
0
 30
0
  9
$UCSORGBOTTOM
 10
0
 20
0
 30
0
  9
$UCSORGLEFT
 10
0
 20
0
 30
0
  9
$UCSORGRIGHT
 10
0
 20
0
 30
0
  9
$UCSORGFRONT
 10
0
 20
0
 30
0
  9
$UCSORGBACK
 10
0
 20
0
 30
0
  9
$PUCSBASE
  2

  9
$PUCSNAME
  2

  9
$PUCSORG
 10
0
 20
0
 30
0
  9
$PUCSXDIR
 10
1
 20
0
 30
0
  9
$PUCSYDIR
 10
0
 20
1
 30
0
  9
$PUCSORTHOREF
  2

  9
$PUCSORTHOVIEW
 70
    0
  9
$PUCSORGTOP
 10
0
 20
0
 30
0
  9
$PUCSORGBOTTOM
 10
0
 20
0
 30
0
  9
$PUCSORGLEFT
 10
0
 20
0
 30
0
  9
$PUCSORGRIGHT
 10
0
 20
0
 30
0
  9
$PUCSORGFRONT
 10
0
 20
0
 30
0
  9
$PUCSORGBACK
 10
0
 20
0
 30
0
  9
$USERI1
 70
    0
  9
$USERI2
 70
    0
  9
$USERI3
 70
    0
  9
$USERI4
 70
    0
  9
$USERI5
 70
    0
  9
$USERR1
 40
0
  9
$USERR2
 40
0
  9
$USERR3
 40
0
  9
$USERR4
 40
0
  9
$USERR5
 40
0
  9
$WORLDVIEW
 70
    1
  9
$SHADEDGE
 70
    3
  9
$SHADEDIF
 70
   70
  9
$TILEMODE
 70
    1
  9
$MAXACTVP
 70
   64
  9
$PINSBASE
 10
0
 20
0
 30
0
  9
$PLIMCHECK
 70
    0
  9
$PEXTMIN
 10
0
 20
0
 30
0
  9
$PEXTMAX
 10
50
 20
50
 30
50
  9
$GRIDMODE
 70
    0
  9
$SNAPSTYLE
 70
    0
  9
$PLIMMIN
 10
0
 20
0
  9
$PLIMMAX
 10
210
 20
297
  9
$UNITMODE
 70
    0
  9
$VISRETAIN
 70
    1
  9
$PLINEGEN
 70
    0
  9
$PSLTSCALE
 70
    1
  9
$TREEDEPTH
 70
 3020
  9
$CMLSTYLE
  2
STANDARD
  9
$CMLJUST
 70
    0
  9
$CMLSCALE
 40
20
  9
$PROXYGRAPHICS
 70
    1
  9
$MEASUREMENT
 70
    1
  9
$CELWEIGHT
370
   -1
  9
$ENDCAPS
280
    0
  9
$JOINSTYLE
280
    0
  9
$LWDISPLAY
290
    0
  9
$INSUNITS
 70
    4
  9
$HYPERLINKBASE
  1

  9
$STYLESHEET
  1

  9
$XEDIT
290
    1
  9
$CEPSNTYPE
380
    0
  9
$PSTYLEMODE
290
    1
  9
$EXTNAMES
290
    1
  9
$PSVPSCALE
 40
1
  9
$OLESTARTUP
290
    0
  0
ENDSEC
  0
SECTION
  2
CLASSES
  0
ENDSEC
  0
SECTION
  2
TABLES
  0
TABLE
  2
VPORT
  5
8
330
0
100
AcDbSymbolTable
 70
    1
  0
VPORT
  5
31
330
2
100
AcDbSymbolTableRecord
100
AcDbViewportTableRecord
  2
*ACTIVE
 70
    0
 10
0
 20
0
 11
1
 21
1
 12
285.172639483496
 22
142.0051255036702
 13
0
 23
0
 14
10
 24
10
 15
10
 25
10
 16
0
 26
0
 36
1
 17
0
 27
0
 37
0
 40
658.686803154814
 41
1.745882352941176
 42
50
 43
0
 44
0
 50
0
 51
0
 71
    0
 72
  100
 73
    1
 74
    3
 75
    0
 76
    0
 77
    0
 78
    0
281
    0
 65
    1
110
0
120
0
130
0
111
1
121
0
131
0
112
0
122
1
132
0
 79
    0
146
0
  0
ENDTAB
  0
TABLE
  2
LTYPE
  5
5
330
0
100
AcDbSymbolTable
 70
    4
  0
LTYPE
  5
14
330
5
100
AcDbSymbolTableRecord
100
AcDbLinetypeTableRecord
  2
ByBlock
 70
    0
  3

 72
   65
 73
    0
 40
0
  0
LTYPE
  5
15
330
5
100
AcDbSymbolTableRecord
100
AcDbLinetypeTableRecord
  2
ByLayer
 70
    0
  3

 72
   65
 73
    0
 40
0
  0
LTYPE
  5
16
330
5
100
AcDbSymbolTableRecord
100
AcDbLinetypeTableRecord
  2
Continuous
 70
    0
  3
Solid line
 72
   65
 73
    0
 40
0
  0
LTYPE
  5
32
330
5
100
AcDbSymbolTableRecord
100
AcDbLinetypeTableRecord
  2
DOT
 70
    0
  3
Dot . . . . . . . . . . . . . . . . . . . . . .
 72
   65
 73
    2
 40
6.35
 49
0
 74
    0
 49
-6.35
 74
    0
  0
LTYPE
  5
33
330
5
100
AcDbSymbolTableRecord
100
AcDbLinetypeTableRecord
  2
DOTTINY
 70
    0
  3
Dot (.15x) .....................................
 72
   65
 73
    2
 40
0.9525
 49
0
 74
    0
 49
-0.9525
 74
    0
  0
LTYPE
  5
34
330
5
100
AcDbSymbolTableRecord
100
AcDbLinetypeTableRecord
  2
DOT2
 70
    0
  3
Dot (.5x) .....................................
 72
   65
 73
    2
 40
3.175
 49
0
 74
    0
 49
-3.175
 74
    0
  0
LTYPE
  5
35
330
5
100
AcDbSymbolTableRecord
100
AcDbLinetypeTableRecord
  2
DOTX2
 70
    0
  3
Dot (2x) .  .  .  .  .  .  .  .  .  .  .  .  .
 72
   65
 73
    2
 40
12.7
 49
0
 74
    0
 49
-12.7
 74
    0
  0
LTYPE
  5
36
330
5
100
AcDbSymbolTableRecord
100
AcDbLinetypeTableRecord
  2
DASHED
 70
    0
  3
Dashed _ _ _ _ _ _ _ _ _ _ _ _ _ _ _ _ _
 72
   65
 73
    2
 40
19.05
 49
12.7
 74
    0
 49
-6.35
 74
    0
  0
LTYPE
  5
37
330
5
100
AcDbSymbolTableRecord
100
AcDbLinetypeTableRecord
  2
DASHEDTINY
 70
    0
  3
Dashed (.15x) _ _ _ _ _ _ _ _ _ _ _ _ _ _ _ _ _
 72
   65
 73
    2
 40
2.8575
 49
1.905
 74
    0
 49
-0.9525
 74
    0
  0
LTYPE
  5
38
330
5
100
AcDbSymbolTableRecord
100
AcDbLinetypeTableRecord
  2
DASHED2
 70
    0
  3
Dashed (.5x) _ _ _ _ _ _ _ _ _ _ _ _ _ _ _ _ _
 72
   65
 73
    2
 40
9.524999999999999
 49
6.35
 74
    0
 49
-3.175
 74
    0
  0
LTYPE
  5
39
330
5
100
AcDbSymbolTableRecord
100
AcDbLinetypeTableRecord
  2
DASHEDX2
 70
    0
  3
Dashed (2x) ____  ____  ____  ____  ____  ___
 72
   65
 73
    2
 40
38.09999999999999
 49
25.4
 74
    0
 49
-12.7
 74
    0
  0
LTYPE
  5
3A
330
5
100
AcDbSymbolTableRecord
100
AcDbLinetypeTableRecord
  2
DASHDOT
 70
    0
  3
Dash dot __ . __ . __ . __ . __ . __ . __ . __
 72
   65
 73
    4
 40
25.4
 49
12.7
 74
    0
 49
-6.35
 74
    0
 49
0
 74
    0
 49
-6.35
 74
    0
  0
LTYPE
  5
3B
330
5
100
AcDbSymbolTableRecord
100
AcDbLinetypeTableRecord
  2
DASHDOTTINY
 70
    0
  3
Dash dot (.15x) _._._._._._._._._._._._._._._.
 72
   65
 73
    4
 40
3.81
 49
1.905
 74
    0
 49
-0.9525
 74
    0
 49
0
 74
    0
 49
-0.9525
 74
    0
  0
LTYPE
  5
3C
330
5
100
AcDbSymbolTableRecord
100
AcDbLinetypeTableRecord
  2
DASHDOT2
 70
    0
  3
Dash dot (.5x) _._._._._._._._._._._._._._._.
 72
   65
 73
    4
 40
12.7
 49
6.35
 74
    0
 49
-3.175
 74
    0
 49
0
 74
    0
 49
-3.175
 74
    0
  0
LTYPE
  5
3D
330
5
100
AcDbSymbolTableRecord
100
AcDbLinetypeTableRecord
  2
DASHDOTX2
 70
    0
  3
Dash dot (2x) ____  .  ____  .  ____  .  ___
 72
   65
 73
    4
 40
50.8
 49
25.4
 74
    0
 49
-12.7
 74
    0
 49
0
 74
    0
 49
-12.7
 74
    0
  0
LTYPE
  5
3E
330
5
100
AcDbSymbolTableRecord
100
AcDbLinetypeTableRecord
  2
DIVIDE
 70
    0
  3
Divide ____ . . ____ . . ____ . . ____ . . ____
 72
   65
 73
    6
 40
31.75
 49
12.7
 74
    0
 49
-6.35
 74
    0
 49
0
 74
    0
 49
-6.35
 74
    0
 49
0
 74
    0
 49
-6.35
 74
    0
  0
LTYPE
  5
3F
330
5
100
AcDbSymbolTableRecord
100
AcDbLinetypeTableRecord
  2
DIVIDETINY
 70
    0
  3
Divide (.15x) __..__..__..__..__..__..__..__.._
 72
   65
 73
    6
 40
4.7625
 49
1.905
 74
    0
 49
-0.9525
 74
    0
 49
0
 74
    0
 49
-0.9525
 74
    0
 49
0
 74
    0
 49
-0.9525
 74
    0
  0
LTYPE
  5
40
330
5
100
AcDbSymbolTableRecord
100
AcDbLinetypeTableRecord
  2
DIVIDE2
 70
    0
  3
Divide (.5x) __..__..__..__..__..__..__..__.._
 72
   65
 73
    6
 40
15.875
 49
6.35
 74
    0
 49
-3.175
 74
    0
 49
0
 74
    0
 49
-3.175
 74
    0
 49
0
 74
    0
 49
-3.175
 74
    0
  0
LTYPE
  5
41
330
5
100
AcDbSymbolTableRecord
100
AcDbLinetypeTableRecord
  2
DIVIDEX2
 70
    0
  3
Divide (2x) ________  .  .  ________  .  .  _
 72
   65
 73
    6
 40
63.5
 49
25.4
 74
    0
 49
-12.7
 74
    0
 49
0
 74
    0
 49
-12.7
 74
    0
 49
0
 74
    0
 49
-12.7
 74
    0
  0
LTYPE
  5
42
330
5
100
AcDbSymbolTableRecord
100
AcDbLinetypeTableRecord
  2
BORDER
 70
    0
  3
Border __ __ . __ __ . __ __ . __ __ . __ __ .
 72
   65
 73
    6
 40
44.45
 49
12.7
 74
    0
 49
-6.35
 74
    0
 49
12.7
 74
    0
 49
-6.35
 74
    0
 49
0
 74
    0
 49
-6.35
 74
    0
  0
LTYPE
  5
43
330
5
100
AcDbSymbolTableRecord
100
AcDbLinetypeTableRecord
  2
BORDERTINY
 70
    0
  3
Border (.15x) __.__.__.__.__.__.__.__.__.__.__.
 72
   65
 73
    6
 40
6.6675
 49
1.905
 74
    0
 49
-0.9525
 74
    0
 49
1.905
 74
    0
 49
-0.9525
 74
    0
 49
0
 74
    0
 49
-0.9525
 74
    0
  0
LTYPE
  5
44
330
5
100
AcDbSymbolTableRecord
100
AcDbLinetypeTableRecord
  2
BORDER2
 70
    0
  3
Border (.5x) __.__.__.__.__.__.__.__.__.__.__.
 72
   65
 73
    6
 40
22.225
 49
6.35
 74
    0
 49
-3.175
 74
    0
 49
6.35
 74
    0
 49
-3.175
 74
    0
 49
0
 74
    0
 49
-3.175
 74
    0
  0
LTYPE
  5
45
330
5
100
AcDbSymbolTableRecord
100
AcDbLinetypeTableRecord
  2
BORDERX2
 70
    0
  3
Border (2x) ____  ____  .  ____  ____  .  ___
 72
   65
 73
    6
 40
88.89999999999999
 49
25.4
 74
    0
 49
-12.7
 74
    0
 49
25.4
 74
    0
 49
-12.7
 74
    0
 49
0
 74
    0
 49
-12.7
 74
    0
  0
LTYPE
  5
46
330
5
100
AcDbSymbolTableRecord
100
AcDbLinetypeTableRecord
  2
CENTER
 70
    0
  3
Center ____ _ ____ _ ____ _ ____ _ ____ _ ____
 72
   65
 73
    4
 40
50.8
 49
31.75
 74
    0
 49
-6.35
 74
    0
 49
6.35
 74
    0
 49
-6.35
 74
    0
  0
LTYPE
  5
47
330
5
100
AcDbSymbolTableRecord
100
AcDbLinetypeTableRecord
  2
CENTERTINY
 70
    0
  3
Center (.15x) ___ _ ___ _ ___ _ ___ _ ___ _ ___
 72
   65
 73
    4
 40
7.619999999999999
 49
4.7625
 74
    0
 49
-0.9525
 74
    0
 49
0.9525
 74
    0
 49
-0.9525
 74
    0
  0
LTYPE
  5
48
330
5
100
AcDbSymbolTableRecord
100
AcDbLinetypeTableRecord
  2
CENTER2
 70
    0
  3
Center (.5x) ___ _ ___ _ ___ _ ___ _ ___ _ ___
 72
   65
 73
    4
 40
28.575
 49
19.05
 74
    0
 49
-3.175
 74
    0
 49
3.175
 74
    0
 49
-3.175
 74
    0
  0
LTYPE
  5
49
330
5
100
AcDbSymbolTableRecord
100
AcDbLinetypeTableRecord
  2
CENTERX2
 70
    0
  3
Center (2x) ________  __  ________  __  _____
 72
   65
 73
    4
 40
101.6
 49
63.5
 74
    0
 49
-12.7
 74
    0
 49
12.7
 74
    0
 49
-12.7
 74
    0
  0
ENDTAB
  0
TABLE
  2
LAYER
  5
2
330
0
100
AcDbSymbolTable
 70
    1
  0
LAYER
  5
10
330
2
100
AcDbSymbolTableRecord
100
AcDbLayerTableRecord
  2
0
 70
    0
 62
    7
  6
CONTINUOUS
370
   -3
390
F
  0
LAYER
  5
4A
330
2
100
AcDbSymbolTableRecord
100
AcDbLayerTableRecord
  2
TOP_PLATE_ORIENTED
 70
    0
 62
    7
  6
CONTINUOUS
370
   -3
390
F
  0
LAYER
  5
4B
330
2
100
AcDbSymbolTableRecord
100
AcDbLayerTableRecord
  2
none
 70
    0
 62
    7
  6
CONTINUOUS
370
   -3
390
F
  0
ENDTAB
  0
TABLE
  2
STYLE
  5
3
330
0
100
AcDbSymbolTable
 70
    3
  0
STYLE
  5
4C
330
2
100
AcDbSymbolTableRecord
100
AcDbTextStyleTableRecord
  2
Standard
 70
    0
 40
0
 41
1
 50
0
 71
    0
 42
1
  3
txt
  4

  0
ENDTAB
  0
TABLE
  2
VIEW
  5
6
330
0
100
AcDbSymbolTable
 70
    0
  0
ENDTAB
  0
TABLE
  2
UCS
  5
7
330
0
100
AcDbSymbolTable
 70
    0
  0
ENDTAB
  0
TABLE
  2
APPID
  5
9
330
0
100
AcDbSymbolTable
 70
    1
  0
APPID
  5
12
330
9
100
AcDbSymbolTableRecord
100
AcDbRegAppTableRecord
  2
ACAD
 70
    0
  0
APPID
  5
4D
330
9
100
AcDbSymbolTableRecord
100
AcDbRegAppTableRecord
  2
LibreCad
 70
    0
  0
ENDTAB
  0
TABLE
  2
DIMSTYLE
  5
A
330
0
100
AcDbSymbolTable
 70
    1
100
AcDbDimStyleTable
 71
    1
  0
DIMSTYLE
105
4E
330
A
100
AcDbSymbolTableRecord
100
AcDbDimStyleTableRecord
  2
Standard
 70
    0
 40
1
 41
2.5
 42
0.625
 43
0.38
 44
1.25
 45
0
 46
0
 47
0
 48
0
 49
1
140
2.5
141
0.09
142
2.5
143
25.4
144
1
145
0
146
1
147
0.625
148
0
 71
    0
 72
    0
 73
    0
 74
    1
 75
    0
 76
    0
 77
    0
 78
    1
 79
    0
170
    0
171
    2
172
    0
173
    0
174
    0
175
    0
176
    0
177
    0
178
    0
179
    0
271
    2
272
    4
273
    2
274
    2
275
    0
276
    0
277
    2
278
    0
279
    0
280
    0
281
    0
282
    0
283
    1
284
    0
285
    0
286
    0
288
    0
289
    3
340
4C
  0
ENDTAB
  0
TABLE
  2
BLOCK_RECORD
  5
1
330
0
100
AcDbSymbolTable
 70
    2
  0
BLOCK_RECORD
  5
1F
330
1
100
AcDbSymbolTableRecord
100
AcDbBlockTableRecord
  2
*Model_Space
  0
BLOCK_RECORD
  5
1E
330
1
100
AcDbSymbolTableRecord
100
AcDbBlockTableRecord
  2
*Paper_Space
  0
ENDTAB
  0
ENDSEC
  0
SECTION
  2
BLOCKS
  0
BLOCK
  5
20
330
1F
100
AcDbEntity
  8
0
100
AcDbBlockBegin
  2
*Model_Space
 70
    0
 10
0
 20
0
 30
0
  3
*Model_Space
  1

  0
ENDBLK
  5
21
330
1F
100
AcDbEntity
  8
0
100
AcDbBlockEnd
  0
BLOCK
  5
1C
330
1B
100
AcDbEntity
  8
0
100
AcDbBlockBegin
  2
*Paper_Space
 70
    0
 10
0
 20
0
 30
0
  3
*Paper_Space
  1

  0
ENDBLK
  5
1D
330
1F
100
AcDbEntity
  8
0
100
AcDbBlockEnd
  0
ENDSEC
  0
SECTION
  2
ENTITIES
  0
SPLINE
  5
4F
100
AcDbEntity
  8
TOP_PLATE_ORIENTED
  6
ByLayer
 62
  256
370
   -1
100
AcDbSpline
210
0
220
0
230
0
 70
 4096
 71
    3
 72
    8
 73
    4
 74
    0
 42
1e-07
 43
1e-07
 40
0
 40
0
 40
0
 40
0
 40
1
 40
1
 40
1
 40
1
 10
-366.068057618
 20
22.250340558
 30
0
 10
-369.724775028
 20
22.317577829
 30
0
 10
-373.252005515
 20
22.160487514
 30
0
 10
-376.651623967
 20
21.828095005
 30
0
  0
SPLINE
  5
50
100
AcDbEntity
  8
TOP_PLATE_ORIENTED
  6
ByLayer
 62
  256
370
   -1
100
AcDbSpline
210
0
220
0
230
0
 70
    8
 71
    2
 72
    6
 73
    3
 74
    0
 42
1e-07
 43
1e-07
 40
0
 40
0
 40
0
 40
1
 40
1
 40
1
 10
-376.621804028
 20
22.18171062
 30
0
 10
-373.681463646
 20
22.4419701
 30
0
 10
-370.569512383
 20
22.524586963
 30
0
  0
SPLINE
  5
51
100
AcDbEntity
  8
TOP_PLATE_ORIENTED
  6
ByLayer
 62
  256
370
   -1
100
AcDbSpline
210
0
220
0
230
0
 70
 4096
 71
    3
 72
    8
 73
    4
 74
    0
 42
1e-07
 43
1e-07
 40
0
 40
0
 40
0
 40
0
 40
1
 40
1
 40
1
 40
1
 10
-376.651592207
 20
-21.960055157
 30
0
 10
-373.211568188
 20
-22.297493751
 30
0
 10
-369.68408926
 20
-22.448359836
 30
0
 10
-366.06805767
 20
-22.381920889
 30
0
  0
LINE
  5
52
100
AcDbEntity
  8
TOP_PLATE_ORIENTED
  6
ByLayer
 62
  256
370
   -1
100
AcDbLine
 10
376.651623967
 20
-30.065790166
 11
370.642386822
 21
-30.065790166
  0
LINE
  5
53
100
AcDbEntity
  8
TOP_PLATE_ORIENTED
  6
ByLayer
 62
  256
370
   -1
100
AcDbLine
 10
367.448750553
 20
-0.065790166
 11
367.448750553
 21
-29.565790166
  0
LINE
  5
54
100
AcDbEntity
  8
TOP_PLATE_ORIENTED
  6
ByLayer
 62
  256
370
   -1
100
AcDbLine
 10
367.448750553
 20
29.434209834
 11
367.448750553
 21
-0.065790166
  0
LINE
  5
55
100
AcDbEntity
  8
TOP_PLATE_ORIENTED
  6
ByLayer
 62
  256
370
   -1
100
AcDbLine
 10
376.651623967
 20
29.934209834
 11
367.948750553
 21
29.934209834
  0
SPLINE
  5
56
100
AcDbEntity
  8
TOP_PLATE_ORIENTED
  6
ByLayer
 62
  256
370
   -1
100
AcDbSpline
210
0
220
0
230
0
 70
 4096
 71
    3
 72
   23
 73
   19
 74
    0
 42
1e-07
 43
1e-07
 40
0
 40
0
 40
0
 40
0
 40
0.2165965
 40
0.2165965
 40
0.2165965
 40
0.3145219
 40
0.3145219
 40
0.3145219
 40
0.5103728
 40
0.5103728
 40
0.5103728
 40
0.7062237
 40
0.7062237
 40
0.7062237
 40
0.8041491
 40
0.8041491
 40
0.8041491
 40
1
 40
1
 40
1
 40
1
 10
376.651623967
 20
29.934209834
 30
0
 10
375.14932646
 20
57.157023125
 30
0
 10
371.50306113
 20
81.99662854499999
 30
0
 10
365.443952379
 20
104.154147333
 30
0
 10
362.704159618
 20
114.171330266
 30
0
 10
359.470273754
 20
123.639285471
 30
0
 10
355.713572716
 20
132.526085855
 30
0
 10
348.199271728
 20
150.298687403
 30
0
 10
338.597928032
 20
165.751358329
 30
0
 10
326.64333596
 20
178.588187731
 30
0
 10
314.686642157
 20
191.422680875
 30
0
 10
300.378126005
 20
201.642917652
 30
0
 10
283.389913111
 20
208.884436977
 30
0
 10
274.895205253
 20
212.50452812
 30
0
 10
265.729162207
 20
215.378371445
 30
0
 10
255.843386876
 20
217.452169347
 30
0
 10
236.069862345
 20
221.597571023
 30
0
 10
213.42667071
 20
222.553086563
 30
0
 10
187.448750553
 20
219.801759503
 30
0
  0
SPLINE
  5
57
100
AcDbEntity
  8
TOP_PLATE_ORIENTED
  6
ByLayer
 62
  256
370
   -1
100
AcDbSpline
210
0
220
0
230
0
 70
 4096
 71
    3
 72
   14
 73
   10
 74
    0
 42
1e-07
 43
1e-07
 40
0
 40
0
 40
0
 40
0
 40
0.321866
 40
0.321866
 40
0.321866
 40
0.643732
 40
0.643732
 40
0.643732
 40
1
 40
1
 40
1
 40
1
 10
187.448750553
 20
219.801759503
 30
0
 10
178.116999801
 20
218.81271877
 30
0
 10
169.666307023
 20
217.031065706
 30
0
 10
161.664607596
 20
214.845491813
 30
0
 10
153.662908169
 20
212.65991792
 30
0
 10
146.110202094
 20
210.070423199
 30
0
 10
138.869294713
 20
207.200429921
 30
0
 10
130.854485043
 20
204.023657901
 30
0
 10
123.22157562
 20
200.503322966
 30
0
 10
115.87019682
 20
196.729719064
 30
0
  0
SPLINE
  5
58
100
AcDbEntity
  8
TOP_PLATE_ORIENTED
  6
ByLayer
 62
  256
370
   -1
100
AcDbSpline
210
0
220
0
230
0
 70
 4096
 71
    3
 72
   11
 73
    7
 74
    0
 42
1e-07
 43
1e-07
 40
0
 40
0
 40
0
 40
0
 40
0.5373858
 40
0.5373858
 40
0.5373858
 40
1
 40
1
 40
1
 40
1
 10
115.87019682
 20
196.729719064
 30
0
 10
107.463408614
 20
193.036257196
 30
0
 10
95.209360471
 20
187.542795727
 30
0
 10
83.283694377
 20
185.961995637
 30
0
 10
73.01736054200001
 20
184.601147418
 30
0
 10
62.994384289
 20
186.139896838
 30
0
 10
55.907422632
 20
194.15761334
 30
0
  0
LINE
  5
59
100
AcDbEntity
  8
TOP_PLATE_ORIENTED
  6
ByLayer
 62
  256
370
   -1
100
AcDbLine
 10
55.907422632
 20
194.15761334
 11
49.341889677
 21
189.381954096
  0
ARC
  5
5A
100
AcDbEntity
  8
TOP_PLATE_ORIENTED
  6
ByLayer
 62
  256
370
   -1
100
AcDbCircle
 10
23.52687656
 20
170.604543811
 40
31.921873993
100
AcDbArc
 50
5.498068251
 51
36.031518069
  0
SPLINE
  5
5B
100
AcDbEntity
  8
TOP_PLATE_ORIENTED
  6
ByLayer
 62
  256
370
   -1
100
AcDbSpline
210
0
220
0
230
0
 70
 4096
 71
    3
 72
   32
 73
   28
 74
    0
 42
1e-07
 43
1e-07
 40
0
 40
0
 40
0
 40
0
 40
0.1433131
 40
0.1433131
 40
0.1433131
 40
0.2510699
 40
0.2510699
 40
0.2510699
 40
0.3729399
 40
0.3729399
 40
0.3729399
 40
0.5195426
 40
0.5195426
 40
0.5195426
 40
0.6572372
 40
0.6572372
 40
0.6572372
 40
0.7678946999999999
 40
0.7678946999999999
 40
0.7678946999999999
 40
0.8885999
 40
0.8885999
 40
0.8885999
 40
0.9203256999999999
 40
0.9203256999999999
 40
0.9203256999999999
 40
1
 40
1
 40
1
 40
1
 10
55.301891714
 20
173.663048541
 30
0
 10
56.298403511
 20
163.310219216
 30
0
 10
51.341642674
 20
154.136939941
 30
0
 10
44.876298135
 20
146.696309539
 30
0
 10
40.01502357
 20
141.101720249
 30
0
 10
34.300872079
 20
136.486683002
 30
0
 10
27.974782913
 20
133.024687676
 30
0
 10
20.820144124
 20
129.109262932
 30
0
 10
12.882775299
 20
126.668695157
 30
0
 10
4.958338652
 20
124.380978031
 30
0
 10
-4.574310776
 20
121.628983622
 30
0
 10
-14.088246399
 20
119.098175264
 30
0
 10
-23.812856985
 20
117.530347038
 30
0
 10
-32.946563448
 20
116.057785985
 30
0
 10
-42.266119921
 20
115.434731984
 30
0
 10
-51.505848044
 20
115.353419207
 30
0
 10
-58.931308644
 20
115.288072605
 30
0
 10
-66.30521249
 20
115.572606953
 30
0
 10
-73.80455643800001
 20
116.415521774
 30
0
 10
-81.98483356600001
 20
117.334972446
 30
0
 10
-90.31436466300001
 20
118.918807954
 30
0
 10
-97.183157505
 20
123.228118981
 30
0
 10
-98.988530399
 20
124.360765357
 30
0
 10
-100.692990692
 20
125.681696543
 30
0
 10
-102.218950602
 20
127.178452816
 30
0
 10
-106.051159375
 20
130.937321238
 30
0
 10
-108.757594124
 20
135.805091018
 30
0
 10
-109.414354416
 20
141.551410641
 30
0
  0
ARC
  5
5C
100
AcDbEntity
  8
TOP_PLATE_ORIENTED
  6
ByLayer
 62
  256
370
   -1
100
AcDbCircle
 10
-88.38650617
 20
143.954732535
 40
21.164743277
100
AcDbArc
 50
146.031518069
 51
-173.479823752
  0
LINE
  5
5D
100
AcDbEntity
  8
TOP_PLATE_ORIENTED
  6
ByLayer
 62
  256
370
   -1
100
AcDbLine
 10
-105.939381364
 20
155.780252836
 11
-113.796455841
 21
161.073630286
  0
SPLINE
  5
5E
100
AcDbEntity
  8
TOP_PLATE_ORIENTED
  6
ByLayer
 62
  256
370
   -1
100
AcDbSpline
210
0
220
0
230
0
 70
 4096
 71
    3
 72
   11
 73
    7
 74
    0
 42
1e-07
 43
1e-07
 40
0
 40
0
 40
0
 40
0
 40
0.5185756
 40
0.5185756
 40
0.5185756
 40
1
 40
1
 40
1
 40
1
 10
-113.796455841
 20
161.073630286
 30
0
 10
-118.999777671
 20
156.543431298
 30
0
 10
-125.81343692
 20
154.649118446
 30
0
 10
-132.767211619
 20
154.518329417
 30
0
 10
-139.222813196
 20
154.396910202
 30
0
 10
-145.799173418
 20
155.795385817
 30
0
 10
-151.349587813
 20
157.939563174
 30
0
  0
SPLINE
  5
5F
100
AcDbEntity
  8
TOP_PLATE_ORIENTED
  6
ByLayer
 62
  256
370
   -1
100
AcDbSpline
210
0
220
0
230
0
 70
 4096
 71
    3
 72
   17
 73
   13
 74
    0
 42
1e-07
 43
1e-07
 40
0
 40
0
 40
0
 40
0
 40
0.1290208
 40
0.1290208
 40
0.1290208
 40
0.4193472
 40
0.4193472
 40
0.4193472
 40
0.7096736
 40
0.7096736
 40
0.7096736
 40
1
 40
1
 40
1
 40
1
 10
-151.349587813
 20
157.939563174
 30
0
 10
-154.939356954
 20
159.473025453
 30
0
 10
-158.609044262
 20
160.91447134
 30
0
 10
-162.358649737
 20
162.263900834
 30
0
 10
-170.797488378
 20
165.298850307
 30
0
 10
-179.650233071
 20
167.857235525
 30
0
 10
-189.000241929
 20
169.843079403
 30
0
 10
-198.350250787
 20
171.828923281
 30
0
 10
-208.197523809
 20
173.242225819
 30
0
 10
-218.69838323
 20
173.903000304
 30
0
 10
-229.199242652
 20
174.563774789
 30
0
 10
-240.353688472
 20
174.472021222
 30
0
 10
-252.551249447
 20
173.179242947
 30
0
  0
SPLINE
  5
60
100
AcDbEntity
  8
TOP_PLATE_ORIENTED
  6
ByLayer
 62
  256
370
   -1
100
AcDbSpline
210
0
220
0
230
0
 70
 4096
 71
    3
 72
   32
 73
   28
 74
    0
 42
1e-07
 43
1e-07
 40
0
 40
0
 40
0
 40
0
 40
0.10879
 40
0.10879
 40
0.10879
 40
0.21758
 40
0.21758
 40
0.21758
 40
0.3263699
 40
0.3263699
 40
0.3263699
 40
0.4351599
 40
0.4351599
 40
0.4351599
 40
0.5439499
 40
0.5439499
 40
0.5439499
 40
0.6527398999999999
 40
0.6527398999999999
 40
0.6527398999999999
 40
0.7615299
 40
0.7615299
 40
0.7615299
 40
0.8703198
 40
0.8703198
 40
0.8703198
 40
1
 40
1
 40
1
 40
1
 10
-252.551249447
 20
173.179242947
 30
0
 10
-262.021435165
 20
172.17552996
 30
0
 10
-270.495512787
 20
170.275703908
 30
0
 10
-278.2869296
 20
167.761746449
 30
0
 10
-286.078346414
 20
165.24778899
 30
0
 10
-293.18710242
 20
162.119700123
 30
0
 10
-299.761204235
 20
158.510628713
 30
0
 10
-306.33530605
 20
154.901557302
 30
0
 10
-312.374753673
 20
150.811503349
 30
0
 10
-317.964391482
 20
146.316794066
 30
0
 10
-323.554029292
 20
141.822084783
 30
0
 10
-328.693857288
 20
136.92272017
 30
0
 10
-333.432223472
 20
131.66219478
 30
0
 10
-338.170589655
 20
126.401669389
 30
0
 10
-342.507494026
 20
120.779983221
 30
0
 10
-346.469377173
 20
114.820922607
 30
0
 10
-350.429568543
 20
108.860340045
 30
0
 10
-354.019814022
 20
102.566948879
 30
0
 10
-357.24011361
 20
95.94074910800001
 30
0
 10
-360.462766911
 20
89.316666771
 30
0
 10
-363.318563849
 20
82.362555212
 30
0
 10
-365.807504422
 20
75.07841443
 30
0
 10
-368.29578306
 20
67.79367816200001
 30
0
 10
-370.415219527
 20
60.177126213
 30
0
 10
-372.146823512
 20
52.211674625
 30
0
 10
-374.210810371
 20
42.716559881
 30
0
 10
-375.724227289
 20
32.726144559
 30
0
 10
-376.621804028
 20
22.18171062
 30
0
  0
SPLINE
  5
61
100
AcDbEntity
  8
TOP_PLATE_ORIENTED
  6
ByLayer
 62
  256
370
   -1
100
AcDbSpline
210
0
220
0
230
0
 70
 4096
 71
    3
 72
   23
 73
   19
 74
    0
 42
1e-07
 43
1e-07
 40
0
 40
0
 40
0
 40
0
 40
0.0979254
 40
0.0979254
 40
0.0979254
 40
0.2937763
 40
0.2937763
 40
0.2937763
 40
0.4896272
 40
0.4896272
 40
0.4896272
 40
0.5875526999999999
 40
0.5875526999999999
 40
0.5875526999999999
 40
0.7834034999999999
 40
0.7834034999999999
 40
0.7834034999999999
 40
1
 40
1
 40
1
 40
1
 10
187.448750553
 20
-219.933339835
 30
0
 10
200.438697566
 20
-221.310100429
 30
0
 10
212.592646941
 20
-221.757576484
 30
0
 10
223.972375436
 20
-221.344438272
 30
0
 10
246.73018265
 20
-220.516327978
 30
0
 10
266.398847621
 20
-216.254365724
 30
0
 10
283.389913111
 20
-209.016017308
 30
0
 10
300.378126005
 20
-201.774497984
 30
0
 10
314.686642157
 20
-191.554261207
 30
0
 10
326.64333596
 20
-178.719768063
 30
0
 10
332.621081452
 20
-172.301852971
 30
0
 10
338.009460354
 20
-165.228805334
 30
0
 10
342.84340791
 20
-157.539458734
 30
0
 10
352.510519206
 20
-142.159894253
 30
0
 10
359.963583041
 20
-124.319222249
 30
0
 10
365.443952379
 20
-104.285727665
 30
0
 10
371.50306113
 20
-82.128208876
 30
0
 10
375.14932646
 20
-57.288603457
 30
0
 10
376.651623967
 20
-30.065790166
 30
0
  0
SPLINE
  5
62
100
AcDbEntity
  8
TOP_PLATE_ORIENTED
  6
ByLayer
 62
  256
370
   -1
100
AcDbSpline
210
0
220
0
230
0
 70
 4096
 71
    3
 72
   14
 73
   10
 74
    0
 42
1e-07
 43
1e-07
 40
0
 40
0
 40
0
 40
0
 40
0.356268
 40
0.356268
 40
0.356268
 40
0.678134
 40
0.678134
 40
0.678134
 40
1
 40
1
 40
1
 40
1
 10
115.87019682
 20
-196.861299396
 30
0
 10
123.22157562
 20
-200.634903298
 30
0
 10
130.854485043
 20
-204.155238232
 30
0
 10
138.869294713
 20
-207.332010253
 30
0
 10
146.110202094
 20
-210.20200353
 30
0
 10
153.662908169
 20
-212.791498252
 30
0
 10
161.664607596
 20
-214.977072145
 30
0
 10
169.666307023
 20
-217.162646037
 30
0
 10
178.116999801
 20
-218.944299102
 30
0
 10
187.448750553
 20
-219.933339835
 30
0
  0
SPLINE
  5
63
100
AcDbEntity
  8
TOP_PLATE_ORIENTED
  6
ByLayer
 62
  256
370
   -1
100
AcDbSpline
210
0
220
0
230
0
 70
 4096
 71
    3
 72
   11
 73
    7
 74
    0
 42
1e-07
 43
1e-07
 40
0
 40
0
 40
0
 40
0
 40
0.4626142
 40
0.4626142
 40
0.4626142
 40
1
 40
1
 40
1
 40
1
 10
55.907422632
 20
-194.289193672
 30
0
 10
62.994384289
 20
-186.271477169
 30
0
 10
73.01736054200001
 20
-184.73272775
 30
0
 10
83.283694377
 20
-186.093575968
 30
0
 10
95.209360471
 20
-187.674376059
 30
0
 10
107.463408614
 20
-193.167837528
 30
0
 10
115.87019682
 20
-196.861299396
 30
0
  0
LINE
  5
64
100
AcDbEntity
  8
TOP_PLATE_ORIENTED
  6
ByLayer
 62
  256
370
   -1
100
AcDbLine
 10
49.341889677
 20
-189.513534428
 11
55.907422632
 21
-194.289193672
  0
ARC
  5
65
100
AcDbEntity
  8
TOP_PLATE_ORIENTED
  6
ByLayer
 62
  256
370
   -1
100
AcDbCircle
 10
23.52687656
 20
-170.736124143
 40
31.921873993
100
AcDbArc
 50
-36.031518069
 51
-5.498068251
  0
SPLINE
  5
66
100
AcDbEntity
  8
TOP_PLATE_ORIENTED
  6
ByLayer
 62
  256
370
   -1
100
AcDbSpline
210
0
220
0
230
0
 70
 4096
 71
    3
 72
   32
 73
   28
 74
    0
 42
1e-07
 43
1e-07
 40
0
 40
0
 40
0
 40
0
 40
0.07967429999999999
 40
0.07967429999999999
 40
0.07967429999999999
 40
0.1114001
 40
0.1114001
 40
0.1114001
 40
0.2321053
 40
0.2321053
 40
0.2321053
 40
0.3427628
 40
0.3427628
 40
0.3427628
 40
0.4804574
 40
0.4804574
 40
0.4804574
 40
0.6270601
 40
0.6270601
 40
0.6270601
 40
0.7489300999999999
 40
0.7489300999999999
 40
0.7489300999999999
 40
0.8566868999999999
 40
0.8566868999999999
 40
0.8566868999999999
 40
1
 40
1
 40
1
 40
1
 10
-109.414354416
 20
-141.682990972
 30
0
 10
-108.757594124
 20
-135.936671349
 30
0
 10
-106.051159375
 20
-131.06890157
 30
0
 10
-102.218950602
 20
-127.310033148
 30
0
 10
-100.692990692
 20
-125.813276875
 30
0
 10
-98.988530399
 20
-124.492345689
 30
0
 10
-97.183157505
 20
-123.359699313
 30
0
 10
-90.31436466300001
 20
-119.050388285
 30
0
 10
-81.98483356600001
 20
-117.466552778
 30
0
 10
-73.80455643800001
 20
-116.547102106
 30
0
 10
-66.30521249
 20
-115.704187285
 30
0
 10
-58.931308644
 20
-115.419652937
 30
0
 10
-51.505848044
 20
-115.484999538
 30
0
 10
-42.266119921
 20
-115.566312316
 30
0
 10
-32.946563448
 20
-116.189366317
 30
0
 10
-23.812856985
 20
-117.661927369
 30
0
 10
-14.088246399
 20
-119.229755596
 30
0
 10
-4.574310776
 20
-121.760563953
 30
0
 10
4.958338652
 20
-124.512558363
 30
0
 10
12.882775299
 20
-126.800275488
 30
0
 10
20.820144124
 20
-129.240843264
 30
0
 10
27.974782913
 20
-133.156268007
 30
0
 10
34.300872079
 20
-136.618263334
 30
0
 10
40.01502357
 20
-141.23330058
 30
0
 10
44.876298135
 20
-146.82788987
 30
0
 10
51.341642674
 20
-154.268520272
 30
0
 10
56.298403511
 20
-163.441799547
 30
0
 10
55.301891714
 20
-173.794628872
 30
0
  0
ARC
  5
67
100
AcDbEntity
  8
TOP_PLATE_ORIENTED
  6
ByLayer
 62
  256
370
   -1
100
AcDbCircle
 10
-88.38650617
 20
-144.086312866
 40
21.164743277
100
AcDbArc
 50
173.479823752
 51
-146.031518069
  0
LINE
  5
68
100
AcDbEntity
  8
TOP_PLATE_ORIENTED
  6
ByLayer
 62
  256
370
   -1
100
AcDbLine
 10
-113.796455841
 20
-161.205210617
 11
-105.939381364
 21
-155.911833167
  0
SPLINE
  5
69
100
AcDbEntity
  8
TOP_PLATE_ORIENTED
  6
ByLayer
 62
  256
370
   -1
100
AcDbSpline
210
0
220
0
230
0
 70
 4096
 71
    3
 72
   11
 73
    7
 74
    0
 42
1e-07
 43
1e-07
 40
0
 40
0
 40
0
 40
0
 40
0.4814244
 40
0.4814244
 40
0.4814244
 40
1
 40
1
 40
1
 40
1
 10
-151.349587813
 20
-158.071143505
 30
0
 10
-145.799173418
 20
-155.926966149
 30
0
 10
-139.222813196
 20
-154.528490534
 30
0
 10
-132.767211619
 20
-154.649909748
 30
0
 10
-125.81343692
 20
-154.780698778
 30
0
 10
-118.999777671
 20
-156.675011629
 30
0
 10
-113.796455841
 20
-161.205210617
 30
0
  0
SPLINE
  5
6A
100
AcDbEntity
  8
TOP_PLATE_ORIENTED
  6
ByLayer
 62
  256
370
   -1
100
AcDbSpline
210
0
220
0
230
0
 70
 4096
 71
    3
 72
   17
 73
   13
 74
    0
 42
1e-07
 43
1e-07
 40
0
 40
0
 40
0
 40
0
 40
0.2903264
 40
0.2903264
 40
0.2903264
 40
0.5806528
 40
0.5806528
 40
0.5806528
 40
0.8709792
 40
0.8709792
 40
0.8709792
 40
1
 40
1
 40
1
 40
1
 10
-252.551249447
 20
-173.310823278
 30
0
 10
-240.353688472
 20
-174.603601554
 30
0
 10
-229.199242652
 20
-174.695355121
 30
0
 10
-218.69838323
 20
-174.034580636
 30
0
 10
-208.197523809
 20
-173.37380615
 30
0
 10
-198.350250787
 20
-171.960503613
 30
0
 10
-189.000241929
 20
-169.974659735
 30
0
 10
-179.650233071
 20
-167.988815857
 30
0
 10
-170.797488378
 20
-165.430430639
 30
0
 10
-162.358649737
 20
-162.395481166
 30
0
 10
-158.609044262
 20
-161.046051672
 30
0
 10
-154.939356954
 20
-159.604605785
 30
0
 10
-151.349587813
 20
-158.071143505
 30
0
  0
SPLINE
  5
6B
100
AcDbEntity
  8
TOP_PLATE_ORIENTED
  6
ByLayer
 62
  256
370
   -1
100
AcDbSpline
210
0
220
0
230
0
 70
 4096
 71
    3
 72
   32
 73
   28
 74
    0
 42
1e-07
 43
1e-07
 40
0
 40
0
 40
0
 40
0
 40
0.1309378
 40
0.1309378
 40
0.1309378
 40
0.2395706
 40
0.2395706
 40
0.2395706
 40
0.3482034
 40
0.3482034
 40
0.3482034
 40
0.4568361
 40
0.4568361
 40
0.4568361
 40
0.5654688999999999
 40
0.5654688999999999
 40
0.5654688999999999
 40
0.6741016999999999
 40
0.6741016999999999
 40
0.6741016999999999
 40
0.7827345
 40
0.7827345
 40
0.7827345
 40
0.8913671999999999
 40
0.8913671999999999
 40
0.8913671999999999
 40
1
 40
1
 40
1
 40
1
 10
-376.651592207
 20
-21.960055157
 30
0
 10
-375.757982142
 20
-32.634735461
 30
0
 10
-374.233818049
 20
-42.74216036
 30
0
 10
-372.146823512
 20
-52.343254957
 30
0
 10
-370.415219527
 20
-60.308706544
 30
0
 10
-368.29578306
 20
-67.925258494
 30
0
 10
-365.807504422
 20
-75.20999476199999
 30
0
 10
-363.318563849
 20
-82.494135543
 30
0
 10
-360.462766911
 20
-89.448247102
 30
0
 10
-357.24011361
 20
-96.072329439
 30
0
 10
-354.019814022
 20
-102.69852921
 30
0
 10
-350.429568543
 20
-108.991920377
 30
0
 10
-346.469377173
 20
-114.952502938
 30
0
 10
-342.507494026
 20
-120.911563553
 30
0
 10
-338.170589655
 20
-126.533249721
 30
0
 10
-333.432223472
 20
-131.793775111
 30
0
 10
-328.693857288
 20
-137.054300502
 30
0
 10
-323.554029292
 20
-141.953665114
 30
0
 10
-317.964391482
 20
-146.448374397
 30
0
 10
-312.374753673
 20
-150.94308368
 30
0
 10
-306.33530605
 20
-155.033137634
 30
0
 10
-299.761204235
 20
-158.642209044
 30
0
 10
-293.18710242
 20
-162.251280455
 30
0
 10
-286.078346414
 20
-165.379369322
 30
0
 10
-278.2869296
 20
-167.893326781
 30
0
 10
-270.495512787
 20
-170.40728424
 30
0
 10
-262.021435165
 20
-172.307110291
 30
0
 10
-252.551249447
 20
-173.310823278
 30
0
  0
SPLINE
  5
6C
100
AcDbEntity
  8
TOP_PLATE_ORIENTED
  6
ByLayer
 62
  256
370
   -1
100
AcDbSpline
210
0
220
0
230
0
 70
 4096
 71
    3
 72
   14
 73
   10
 74
    0
 42
1e-07
 43
1e-07
 40
0
 40
0
 40
0
 40
0
 40
0.3333333
 40
0.3333333
 40
0.3333333
 40
0.6666666999999999
 40
0.6666666999999999
 40
0.6666666999999999
 40
1
 40
1
 40
1
 40
1
 10
-366.06805767
 20
-22.381920889
 30
0
 10
-366.489410942
 20
-17.422907755
 30
0
 10
-366.811353615
 20
-12.467640583
 30
0
 10
-366.972171139
 20
-7.504397924
 30
0
 10
-367.13292993
 20
-2.538007787
 30
0
 10
-367.132739769
 20
2.426915403
 30
0
 10
-366.971600655
 20
7.390371644
 30
0
 10
-366.810520274
 20
12.350680407
 30
0
 10
-366.488667138
 20
17.300079786
 30
0
 10
-366.068057618
 20
22.250340558
 30
0
  0
LINE
  5
6D
100
AcDbEntity
  8
0
  6
ByLayer
 62
  256
370
   -1
100
AcDbLine
 10
370.501358723577
 20
-30.28363596208036
 11
367.3468133108603
 21
-29.65272687953702
  0
ENDSEC
  0
SECTION
  2
OBJECTS
  0
DICTIONARY
  5
C
330
0
100
AcDbDictionary
281
    1
  3
ACAD_GROUP
350
D
  0
DICTIONARY
  5
D
330
C
100
AcDbDictionary
281
    1
  0
PLOTSETTINGS
  5
6E
100
AcDbPlotSettings
  6
1x1
 40
0
 41
0
 42
0
 43
0
  0
ENDSEC
  0
EOF
